<svg width="14" height="14" viewBox="0 0 14 14" fill="none" xmlns="http://www.w3.org/2000/svg">
<g clip-path="url(#clip0_1681_1421)">
<path d="M12.25 13.9417L10.1132 12.4769L8.55925 13.5415L7.00408 12.4763L5.44892 13.5403L3.89083 12.4752L1.75 13.9417V1.75C1.75 1.28587 1.93437 0.840752 2.26256 0.512563C2.59075 0.184374 3.03587 0 3.5 0L10.5 0C10.9641 0 11.4092 0.184374 11.7374 0.512563C12.0656 0.840752 12.25 1.28587 12.25 1.75V13.9417ZM3.89083 11.0612L5.44833 12.1263L7.00408 11.0612L8.55925 12.1263L10.1138 11.0606L11.0833 11.725V1.75C11.0833 1.59529 11.0219 1.44692 10.9125 1.33752C10.8031 1.22812 10.6547 1.16667 10.5 1.16667H3.5C3.34529 1.16667 3.19692 1.22812 3.08752 1.33752C2.97812 1.44692 2.91667 1.59529 2.91667 1.75V11.725L3.89083 11.0612Z" fill="black"/>
<path d="M9.91634 4.66699H4.08301V5.83366H9.91634V4.66699Z" fill="black"/>
<path d="M8.74967 7H4.08301V8.16667H8.74967V7Z" fill="black"/>
</g>
<defs>
<clipPath id="clip0_1681_1421">
<rect width="14" height="14" fill="white"/>
</clipPath>
</defs>
</svg>
