<svg width="14" height="14" viewBox="0 0 14 14" fill="none" xmlns="http://www.w3.org/2000/svg">
<path d="M9.5765 8.653C9.46047 8.653 9.34919 8.69909 9.26714 8.78114C9.18509 8.86318 9.139 8.97446 9.139 9.0905C9.139 9.20653 9.18509 9.31781 9.26714 9.39985C9.34919 9.4819 9.46047 9.528 9.5765 9.528H11.0348C11.1509 9.528 11.2621 9.4819 11.3442 9.39985C11.4262 9.31781 11.4723 9.20653 11.4723 9.0905C11.4723 8.97446 11.4262 8.86318 11.3442 8.78114C11.2621 8.69909 11.1509 8.653 11.0348 8.653H9.5765ZM1.55566 5.00716C1.55566 4.50436 1.7554 4.02214 2.11094 3.6666C2.46648 3.31107 2.94869 3.11133 3.4515 3.11133H11.3265C11.5755 3.11133 11.822 3.16037 12.052 3.25564C12.282 3.35091 12.491 3.49056 12.6671 3.6666C12.8431 3.84265 12.9827 4.05164 13.078 4.28166C13.1733 4.51167 13.2223 4.7582 13.2223 5.00716V9.38216C13.2223 9.63113 13.1733 9.87765 13.078 10.1077C12.9827 10.3377 12.8431 10.5467 12.6671 10.7227C12.491 10.8988 12.282 11.0384 12.052 11.1337C11.822 11.229 11.5755 11.278 11.3265 11.278H3.4515C2.94869 11.278 2.46648 11.0783 2.11094 10.7227C1.7554 10.3672 1.55566 9.88497 1.55566 9.38216V5.00716ZM12.3473 5.73633V5.00716C12.3473 4.73642 12.2398 4.47677 12.0483 4.28532C11.8569 4.09388 11.5972 3.98633 11.3265 3.98633H3.4515C3.18076 3.98633 2.9211 4.09388 2.72966 4.28532C2.53822 4.47677 2.43066 4.73642 2.43066 5.00716V5.73633H12.3473ZM2.43066 6.61133V9.38216C2.43066 9.94566 2.888 10.403 3.4515 10.403H11.3265C11.5972 10.403 11.8569 10.2954 12.0483 10.104C12.2398 9.91256 12.3473 9.6529 12.3473 9.38216V6.61133H2.43066Z" fill="black"/>
</svg>
