<svg width="12" height="12" viewBox="0 0 12 12" fill="none" xmlns="http://www.w3.org/2000/svg">
<g clip-path="url(#clip0_1681_1411)">
<path d="M6.49999 0.499822C6.49999 0.367214 6.55267 0.240037 6.64644 0.146269C6.74021 0.0525004 6.86739 -0.000178079 6.99999 -0.000178079C8.32563 0.00127772 9.59655 0.528529 10.5339 1.4659C11.4713 2.40326 11.9985 3.67419 12 4.99982C12 5.13243 11.9473 5.25961 11.8535 5.35338C11.7598 5.44714 11.6326 5.49982 11.5 5.49982C11.3674 5.49982 11.2402 5.44714 11.1464 5.35338C11.0527 5.25961 11 5.13243 11 4.99982C10.9988 3.93932 10.577 2.9226 9.8271 2.17271C9.07722 1.42282 8.06049 1.00101 6.99999 0.999822C6.86739 0.999822 6.74021 0.947144 6.64644 0.853375C6.55267 0.759607 6.49999 0.63243 6.49999 0.499822ZM6.99999 2.99982C7.53043 2.99982 8.03913 3.21054 8.41421 3.58561C8.78928 3.96068 8.99999 4.46939 8.99999 4.99982C8.99999 5.13243 9.05267 5.25961 9.14644 5.35338C9.24021 5.44714 9.36738 5.49982 9.49999 5.49982C9.6326 5.49982 9.75978 5.44714 9.85355 5.35338C9.94732 5.25961 9.99999 5.13243 9.99999 4.99982C9.9992 4.20442 9.68287 3.44182 9.12044 2.87938C8.558 2.31694 7.7954 2.00062 6.99999 1.99982C6.86739 1.99982 6.74021 2.0525 6.64644 2.14627C6.55267 2.24004 6.49999 2.36721 6.49999 2.49982C6.49999 2.63243 6.55267 2.75961 6.64644 2.85338C6.74021 2.94714 6.86739 2.99982 6.99999 2.99982ZM11.5465 8.36932C11.8362 8.65988 11.999 9.05348 11.999 9.46382C11.999 9.87417 11.8362 10.2678 11.5465 10.5583L11.0915 11.0828C6.99649 15.0033 -2.96851 5.04082 0.891493 0.932822L1.46649 0.432822C1.75738 0.151161 2.14746 -0.00465354 2.55235 -0.000910658C2.95723 0.00283222 3.34437 0.165831 3.62999 0.452822C3.64549 0.468322 4.57199 1.67182 4.57199 1.67182C4.84691 1.96064 4.99995 2.34429 4.99929 2.74302C4.99864 3.14176 4.84435 3.52491 4.56849 3.81282L3.98949 4.54082C4.30992 5.31938 4.78102 6.02695 5.37575 6.62287C5.97047 7.21879 6.67709 7.69133 7.45499 8.01332L8.18749 7.43082C8.47545 7.15518 8.85853 7.00107 9.25714 7.00051C9.65576 6.99995 10.0393 7.15299 10.328 7.42782C10.328 7.42782 11.531 8.35382 11.5465 8.36932ZM10.8585 9.09632C10.8585 9.09632 9.66199 8.17582 9.64649 8.16032C9.54349 8.05819 9.4043 8.00088 9.25924 8.00088C9.11419 8.00088 8.975 8.05819 8.87199 8.16032C8.85849 8.17432 7.84999 8.97782 7.84999 8.97782C7.78203 9.03192 7.70115 9.06738 7.61532 9.0807C7.52948 9.09403 7.44166 9.08477 7.36049 9.05382C6.35272 8.67861 5.43736 8.09119 4.67641 7.33136C3.91546 6.57153 3.32669 5.65704 2.94999 4.64982C2.91659 4.56755 2.9057 4.47787 2.91844 4.38999C2.93119 4.30212 2.9671 4.21922 3.02249 4.14982C3.02249 4.14982 3.82599 3.14082 3.83949 3.12782C3.94163 3.02482 3.99893 2.88563 3.99893 2.74057C3.99893 2.59551 3.94163 2.45633 3.83949 2.35332C3.82399 2.33832 2.90349 1.14082 2.90349 1.14082C2.79894 1.04708 2.66249 0.99687 2.52212 1.0005C2.38174 1.00412 2.24806 1.0613 2.14849 1.16032L1.57349 1.66032C-1.24751 5.05232 7.38799 13.2088 10.3605 10.3998L10.816 9.87482C10.9227 9.77595 10.9868 9.63945 10.9948 9.49417C11.0027 9.3489 10.9538 9.20623 10.8585 9.09632Z" fill="black"/>
</g>
<defs>
<clipPath id="clip0_1681_1411">
<rect width="12" height="12" fill="white"/>
</clipPath>
</defs>
</svg>
