<svg width="12" height="14" viewBox="0 0 12 14" fill="none" xmlns="http://www.w3.org/2000/svg">
<path d="M10.6867 4.26L11.6333 3.31333C11.3333 2.97333 11.0333 2.66667 10.6933 2.37333L9.74667 3.33333C8.71333 2.49333 7.41333 2 6 2C4.4087 2 2.88258 2.63214 1.75736 3.75736C0.632141 4.88258 0 6.4087 0 8C0 9.5913 0.632141 11.1174 1.75736 12.2426C2.88258 13.3679 4.4087 14 6 14C9.33333 14 12 11.3133 12 8C12 6.58667 11.5067 5.28667 10.6867 4.26ZM6.66667 8.66667H5.33333V4H6.66667V8.66667ZM8 0H4V1.33333H8V0Z" fill="#3EB555"/>
</svg>
