<svg width="123" height="107" viewBox="0 0 123 107" fill="none" xmlns="http://www.w3.org/2000/svg">
<path d="M122.012 100.839H0.685547V100.916H122.012V100.839Z" fill="#E1F0F5"/>
<path d="M109.855 105.795H101.818V105.872H109.855V105.795Z" fill="#E1F0F5"/>
<path d="M81.0569 106.633H78.9482V106.71H81.0569V106.633Z" fill="#E1F0F5"/>
<path d="M101.575 102.937H96.9189V103.014H101.575V102.937Z" fill="#E1F0F5"/>
<path d="M23.8952 103.454H13.415V103.531H23.8952V103.454Z" fill="#E1F0F5"/>
<path d="M27.5936 103.454H26.0576V103.531H27.5936V103.454Z" fill="#E1F0F5"/>
<path d="M55.3185 104.754H32.5869V104.831H55.3185V104.754Z" fill="#E1F0F5"/>
<path d="M58.1938 87.1024H11.3401C10.9731 87.1016 10.6213 86.9159 10.362 86.5862C10.1027 86.2565 9.95703 85.8096 9.95703 85.3437V1.74328C9.96023 1.28006 10.1073 0.837137 10.3662 0.510731C10.6252 0.184325 10.9752 0.000793527 11.3401 0H58.1938C58.5613 0 58.9137 0.185289 59.1735 0.515106C59.4334 0.844922 59.5794 1.29225 59.5794 1.75868V85.3437C59.5794 85.8102 59.4334 86.2575 59.1735 86.5873C58.9137 86.9171 58.5613 87.1024 58.1938 87.1024ZM11.3401 0.0616002C10.9892 0.0624161 10.6528 0.239952 10.4049 0.55524C10.1569 0.870528 10.0177 1.2978 10.0177 1.74328V85.3437C10.0177 85.7892 10.1569 86.2165 10.4049 86.5318C10.6528 86.8471 10.9892 87.0246 11.3401 87.0254H58.1938C58.545 87.0246 58.8816 86.8472 59.1299 86.532C59.3783 86.2168 59.518 85.7895 59.5187 85.3437V1.74328C59.518 1.29752 59.3783 0.870252 59.1299 0.555052C58.8816 0.239852 58.545 0.0624144 58.1938 0.0616002H11.3401Z" fill="#E1F0F5"/>
<path d="M110.682 87.1024H63.826C63.4587 87.1016 63.1067 86.916 62.847 86.5864C62.5873 86.2568 62.4411 85.8099 62.4404 85.3437V1.74328C62.4443 1.27978 62.5919 0.83686 62.8512 0.510539C63.1106 0.184217 63.4608 0.000784873 63.826 0H110.682C111.047 0.00160298 111.396 0.185493 111.654 0.511812C111.913 0.838132 112.06 1.28059 112.063 1.74328V85.3437C112.063 85.8091 111.917 86.2555 111.659 86.5851C111.4 86.9148 111.049 87.1008 110.682 87.1024ZM63.826 0.0616002C63.4748 0.0624144 63.1382 0.239852 62.8898 0.555052C62.6415 0.870252 62.5017 1.29752 62.5011 1.74328V85.3437C62.5017 85.7895 62.6415 86.2168 62.8898 86.532C63.1382 86.8472 63.4748 87.0246 63.826 87.0254H110.682C111.033 87.0246 111.37 86.8472 111.618 86.532C111.867 86.2168 112.006 85.7895 112.007 85.3437V1.74328C112.006 1.29752 111.867 0.870252 111.618 0.555052C111.37 0.239852 111.033 0.0624144 110.682 0.0616002H63.826Z" fill="#E1F0F5"/>
<path d="M107.101 63.0445V59.792H105.943V47.8324H105.249V47.623H104.092V35.6633H103.264V37.4251H89.6975V32.0751H87.3826V13.0869H86.4751V32.0751H83.2503V37.4251H81.7628V62.6041H74.8205V55.0488H77.3004V53.5797H74.8205V51.6916H68.2083V32.3893H66.5558V29.454H58.7861V32.3893H57.6311V59.0374H53.9937V71.416H52.1301V61.5538H50.5602V59.0374H46.9253V50.435H44.9331V44.3489H42.4847V35.4847H41.6112V44.3489H39.1628V50.435H37.1731V59.0374H33.5357V61.5538H31.9658V71.416H29.5805V45.5039H28.7045V54.3158H25.5622V71.416H24.4047V38.8942H23.2497V26.9346H22.4223V31.1665L16.4555 34.6993V38.8942H13.6625V71.416H13.2549V100.399H109.442V63.0445H107.101Z" fill="#E1F0F5"/>
<path d="M95.6964 38.6016H94.7598V39.7904H95.6964V38.6016Z" fill="#E1F0F5"/>
<path d="M95.6964 40.5947H94.7598V41.7836H95.6964V40.5947Z" fill="#E1F0F5"/>
<path d="M95.6964 48.5684H94.7598V49.7572H95.6964V48.5684Z" fill="#E1F0F5"/>
<path d="M95.6964 50.5615H94.7598V51.7504H95.6964V50.5615Z" fill="#E1F0F5"/>
<path d="M95.6964 52.5537H94.7598V53.7426H95.6964V52.5537Z" fill="#E1F0F5"/>
<path d="M95.6964 58.5352H94.7598V59.724H95.6964V58.5352Z" fill="#E1F0F5"/>
<path d="M95.6964 60.5283H94.7598V61.7172H95.6964V60.5283Z" fill="#E1F0F5"/>
<path d="M94.2062 46.5762H93.2695V47.7651H94.2062V46.5762Z" fill="#E1F0F5"/>
<path d="M94.2062 48.5684H93.2695V49.7572H94.2062V48.5684Z" fill="#E1F0F5"/>
<path d="M94.2062 50.5615H93.2695V51.7504H94.2062V50.5615Z" fill="#E1F0F5"/>
<path d="M94.2062 52.5537H93.2695V53.7426H94.2062V52.5537Z" fill="#E1F0F5"/>
<path d="M94.2062 54.5469H93.2695V55.7358H94.2062V54.5469Z" fill="#E1F0F5"/>
<path d="M94.2062 58.5352H93.2695V59.724H94.2062V58.5352Z" fill="#E1F0F5"/>
<path d="M94.2062 60.5283H93.2695V61.7172H94.2062V60.5283Z" fill="#E1F0F5"/>
<path d="M92.7189 38.6016H91.7822V39.7904H92.7189V38.6016Z" fill="#E1F0F5"/>
<path d="M92.7189 40.5947H91.7822V41.7836H92.7189V40.5947Z" fill="#E1F0F5"/>
<path d="M92.7189 42.5869H91.7822V43.7758H92.7189V42.5869Z" fill="#E1F0F5"/>
<path d="M92.7189 44.583H91.7822V45.7719H92.7189V44.583Z" fill="#E1F0F5"/>
<path d="M92.7189 46.5762H91.7822V47.7651H92.7189V46.5762Z" fill="#E1F0F5"/>
<path d="M92.7189 48.5684H91.7822V49.7572H92.7189V48.5684Z" fill="#E1F0F5"/>
<path d="M92.7189 50.5615H91.7822V51.7504H92.7189V50.5615Z" fill="#E1F0F5"/>
<path d="M92.7189 52.5537H91.7822V53.7426H92.7189V52.5537Z" fill="#E1F0F5"/>
<path d="M92.7189 54.5469H91.7822V55.7358H92.7189V54.5469Z" fill="#E1F0F5"/>
<path d="M92.7189 56.54H91.7822V57.7289H92.7189V56.54Z" fill="#E1F0F5"/>
<path d="M92.7189 60.5283H91.7822V61.7172H92.7189V60.5283Z" fill="#E1F0F5"/>
<path d="M91.2316 38.6016H90.2949V39.7904H91.2316V38.6016Z" fill="#E1F0F5"/>
<path d="M91.2316 40.5947H90.2949V41.7836H91.2316V40.5947Z" fill="#E1F0F5"/>
<path d="M91.2316 42.5869H90.2949V43.7758H91.2316V42.5869Z" fill="#E1F0F5"/>
<path d="M91.2316 44.583H90.2949V45.7719H91.2316V44.583Z" fill="#E1F0F5"/>
<path d="M91.2316 46.5762H90.2949V47.7651H91.2316V46.5762Z" fill="#E1F0F5"/>
<path d="M91.2316 48.5684H90.2949V49.7572H91.2316V48.5684Z" fill="#E1F0F5"/>
<path d="M91.2316 50.5615H90.2949V51.7504H91.2316V50.5615Z" fill="#E1F0F5"/>
<path d="M91.2316 68.499H90.2949V69.6879H91.2316V68.499Z" fill="#E1F0F5"/>
<path d="M89.7433 38.6016H88.8066V39.7904H89.7433V38.6016Z" fill="#E1F0F5"/>
<path d="M89.7433 40.5947H88.8066V41.7836H89.7433V40.5947Z" fill="#E1F0F5"/>
<path d="M89.7433 42.5869H88.8066V43.7758H89.7433V42.5869Z" fill="#E1F0F5"/>
<path d="M89.7433 44.583H88.8066V45.7719H89.7433V44.583Z" fill="#E1F0F5"/>
<path d="M89.7433 46.5762H88.8066V47.7651H89.7433V46.5762Z" fill="#E1F0F5"/>
<path d="M89.7433 48.5684H88.8066V49.7572H89.7433V48.5684Z" fill="#E1F0F5"/>
<path d="M89.7433 50.5615H88.8066V51.7504H89.7433V50.5615Z" fill="#E1F0F5"/>
<path d="M89.7433 52.5537H88.8066V53.7426H89.7433V52.5537Z" fill="#E1F0F5"/>
<path d="M89.7433 64.5137H88.8066V65.7026H89.7433V64.5137Z" fill="#E1F0F5"/>
<path d="M89.7433 66.5068H88.8066V67.6957H89.7433V66.5068Z" fill="#E1F0F5"/>
<path d="M89.7433 68.499H88.8066V69.6879H89.7433V68.499Z" fill="#E1F0F5"/>
<path d="M89.7433 70.4951H88.8066V71.684H89.7433V70.4951Z" fill="#E1F0F5"/>
<path d="M89.7433 78.4658H88.8066V79.6547H89.7433V78.4658Z" fill="#E1F0F5"/>
<path d="M88.256 38.6016H87.3193V39.7904H88.256V38.6016Z" fill="#E1F0F5"/>
<path d="M88.256 40.5947H87.3193V41.7836H88.256V40.5947Z" fill="#E1F0F5"/>
<path d="M88.256 42.5869H87.3193V43.7758H88.256V42.5869Z" fill="#E1F0F5"/>
<path d="M88.256 44.583H87.3193V45.7719H88.256V44.583Z" fill="#E1F0F5"/>
<path d="M88.256 46.5762H87.3193V47.7651H88.256V46.5762Z" fill="#E1F0F5"/>
<path d="M88.256 48.5684H87.3193V49.7572H88.256V48.5684Z" fill="#E1F0F5"/>
<path d="M88.256 50.5615H87.3193V51.7504H88.256V50.5615Z" fill="#E1F0F5"/>
<path d="M88.256 52.5537H87.3193V53.7426H88.256V52.5537Z" fill="#E1F0F5"/>
<path d="M88.256 54.5469H87.3193V55.7358H88.256V54.5469Z" fill="#E1F0F5"/>
<path d="M88.256 56.54H87.3193V57.7289H88.256V56.54Z" fill="#E1F0F5"/>
<path d="M88.256 62.5205H87.3193V63.7094H88.256V62.5205Z" fill="#E1F0F5"/>
<path d="M88.256 64.5137H87.3193V65.7026H88.256V64.5137Z" fill="#E1F0F5"/>
<path d="M88.256 66.5068H87.3193V67.6957H88.256V66.5068Z" fill="#E1F0F5"/>
<path d="M88.256 68.499H87.3193V69.6879H88.256V68.499Z" fill="#E1F0F5"/>
<path d="M88.256 70.4951H87.3193V71.684H88.256V70.4951Z" fill="#E1F0F5"/>
<path d="M88.256 78.4658H87.3193V79.6547H88.256V78.4658Z" fill="#E1F0F5"/>
<path d="M86.7687 38.6016H85.832V39.7904H86.7687V38.6016Z" fill="#E1F0F5"/>
<path d="M86.7687 40.5947H85.832V41.7836H86.7687V40.5947Z" fill="#E1F0F5"/>
<path d="M86.7687 42.5869H85.832V43.7758H86.7687V42.5869Z" fill="#E1F0F5"/>
<path d="M86.7687 44.583H85.832V45.7719H86.7687V44.583Z" fill="#E1F0F5"/>
<path d="M86.7687 46.5762H85.832V47.7651H86.7687V46.5762Z" fill="#E1F0F5"/>
<path d="M86.7687 48.5684H85.832V49.7572H86.7687V48.5684Z" fill="#E1F0F5"/>
<path d="M86.7687 50.5615H85.832V51.7504H86.7687V50.5615Z" fill="#E1F0F5"/>
<path d="M86.7687 52.5537H85.832V53.7426H86.7687V52.5537Z" fill="#E1F0F5"/>
<path d="M86.7687 54.5469H85.832V55.7358H86.7687V54.5469Z" fill="#E1F0F5"/>
<path d="M86.7687 56.54H85.832V57.7289H86.7687V56.54Z" fill="#E1F0F5"/>
<path d="M86.7687 58.5352H85.832V59.724H86.7687V58.5352Z" fill="#E1F0F5"/>
<path d="M86.7687 60.5283H85.832V61.7172H86.7687V60.5283Z" fill="#E1F0F5"/>
<path d="M86.7687 62.5205H85.832V63.7094H86.7687V62.5205Z" fill="#E1F0F5"/>
<path d="M86.7687 64.5137H85.832V65.7026H86.7687V64.5137Z" fill="#E1F0F5"/>
<path d="M86.7687 66.5068H85.832V67.6957H86.7687V66.5068Z" fill="#E1F0F5"/>
<path d="M86.7687 68.499H85.832V69.6879H86.7687V68.499Z" fill="#E1F0F5"/>
<path d="M86.7687 70.4951H85.832V71.684H86.7687V70.4951Z" fill="#E1F0F5"/>
<path d="M86.7687 72.4883H85.832V73.6772H86.7687V72.4883Z" fill="#E1F0F5"/>
<path d="M85.2814 38.6016H84.3447V39.7904H85.2814V38.6016Z" fill="#E1F0F5"/>
<path d="M85.2814 40.5947H84.3447V41.7836H85.2814V40.5947Z" fill="#E1F0F5"/>
<path d="M85.2814 42.5869H84.3447V43.7758H85.2814V42.5869Z" fill="#E1F0F5"/>
<path d="M85.2814 44.583H84.3447V45.7719H85.2814V44.583Z" fill="#E1F0F5"/>
<path d="M85.2814 46.5762H84.3447V47.7651H85.2814V46.5762Z" fill="#E1F0F5"/>
<path d="M85.2814 48.5684H84.3447V49.7572H85.2814V48.5684Z" fill="#E1F0F5"/>
<path d="M85.2814 50.5615H84.3447V51.7504H85.2814V50.5615Z" fill="#E1F0F5"/>
<path d="M85.2814 52.5537H84.3447V53.7426H85.2814V52.5537Z" fill="#E1F0F5"/>
<path d="M85.2814 54.5469H84.3447V55.7358H85.2814V54.5469Z" fill="#E1F0F5"/>
<path d="M85.2814 56.54H84.3447V57.7289H85.2814V56.54Z" fill="#E1F0F5"/>
<path d="M85.2814 62.5205H84.3447V63.7094H85.2814V62.5205Z" fill="#E1F0F5"/>
<path d="M85.2814 64.5137H84.3447V65.7026H85.2814V64.5137Z" fill="#E1F0F5"/>
<path d="M85.2814 66.5068H84.3447V67.6957H85.2814V66.5068Z" fill="#E1F0F5"/>
<path d="M85.2814 68.499H84.3447V69.6879H85.2814V68.499Z" fill="#E1F0F5"/>
<path d="M83.7941 38.6016H82.8574V39.7904H83.7941V38.6016Z" fill="#E1F0F5"/>
<path d="M83.7941 40.5947H82.8574V41.7836H83.7941V40.5947Z" fill="#E1F0F5"/>
<path d="M83.7941 42.5869H82.8574V43.7758H83.7941V42.5869Z" fill="#E1F0F5"/>
<path d="M83.7941 44.583H82.8574V45.7719H83.7941V44.583Z" fill="#E1F0F5"/>
<path d="M83.7941 46.5762H82.8574V47.7651H83.7941V46.5762Z" fill="#E1F0F5"/>
<path d="M83.7941 48.5684H82.8574V49.7572H83.7941V48.5684Z" fill="#E1F0F5"/>
<path d="M83.7941 50.5615H82.8574V51.7504H83.7941V50.5615Z" fill="#E1F0F5"/>
<path d="M83.7941 52.5537H82.8574V53.7426H83.7941V52.5537Z" fill="#E1F0F5"/>
<path d="M83.7941 54.5469H82.8574V55.7358H83.7941V54.5469Z" fill="#E1F0F5"/>
<path d="M83.7941 56.54H82.8574V57.7289H83.7941V56.54Z" fill="#E1F0F5"/>
<path d="M83.7941 62.5205H82.8574V63.7094H83.7941V62.5205Z" fill="#E1F0F5"/>
<path d="M83.7941 64.5137H82.8574V65.7026H83.7941V64.5137Z" fill="#E1F0F5"/>
<path d="M83.7941 66.5068H82.8574V67.6957H83.7941V66.5068Z" fill="#E1F0F5"/>
<path d="M67.0441 33.4268H66.1074V34.6156H67.0441V33.4268Z" fill="#E1F0F5"/>
<path d="M67.0441 35.4199H66.1074V36.6088H67.0441V35.4199Z" fill="#E1F0F5"/>
<path d="M67.0441 37.4131H66.1074V38.602H67.0441V37.4131Z" fill="#E1F0F5"/>
<path d="M67.0441 39.4053H66.1074V40.5942H67.0441V39.4053Z" fill="#E1F0F5"/>
<path d="M67.0441 41.3984H66.1074V42.5873H67.0441V41.3984Z" fill="#E1F0F5"/>
<path d="M67.0441 43.3945H66.1074V44.5834H67.0441V43.3945Z" fill="#E1F0F5"/>
<path d="M67.0441 45.3867H66.1074V46.5756H67.0441V45.3867Z" fill="#E1F0F5"/>
<path d="M67.0441 47.3799H66.1074V48.5688H67.0441V47.3799Z" fill="#E1F0F5"/>
<path d="M67.0441 53.3584H66.1074V54.5473H67.0441V53.3584Z" fill="#E1F0F5"/>
<path d="M67.0441 55.3506H66.1074V56.5395H67.0441V55.3506Z" fill="#E1F0F5"/>
<path d="M65.5558 33.4268H64.6191V34.6156H65.5558V33.4268Z" fill="#E1F0F5"/>
<path d="M65.5558 35.4199H64.6191V36.6088H65.5558V35.4199Z" fill="#E1F0F5"/>
<path d="M65.5558 37.4131H64.6191V38.602H65.5558V37.4131Z" fill="#E1F0F5"/>
<path d="M65.5558 39.4053H64.6191V40.5942H65.5558V39.4053Z" fill="#E1F0F5"/>
<path d="M65.5558 41.3984H64.6191V42.5873H65.5558V41.3984Z" fill="#E1F0F5"/>
<path d="M65.5558 43.3945H64.6191V44.5834H65.5558V43.3945Z" fill="#E1F0F5"/>
<path d="M65.5558 45.3867H64.6191V46.5756H65.5558V45.3867Z" fill="#E1F0F5"/>
<path d="M65.5558 47.3799H64.6191V48.5688H65.5558V47.3799Z" fill="#E1F0F5"/>
<path d="M65.5558 55.3506H64.6191V56.5395H65.5558V55.3506Z" fill="#E1F0F5"/>
<path d="M64.0685 33.4268H63.1318V34.6156H64.0685V33.4268Z" fill="#E1F0F5"/>
<path d="M64.0685 35.4199H63.1318V36.6088H64.0685V35.4199Z" fill="#E1F0F5"/>
<path d="M64.0685 37.4131H63.1318V38.602H64.0685V37.4131Z" fill="#E1F0F5"/>
<path d="M64.0685 39.4053H63.1318V40.5942H64.0685V39.4053Z" fill="#E1F0F5"/>
<path d="M64.0685 41.3984H63.1318V42.5873H64.0685V41.3984Z" fill="#E1F0F5"/>
<path d="M64.0685 43.3945H63.1318V44.5834H64.0685V43.3945Z" fill="#E1F0F5"/>
<path d="M64.0685 45.3867H63.1318V46.5756H64.0685V45.3867Z" fill="#E1F0F5"/>
<path d="M64.0685 47.3799H63.1318V48.5688H64.0685V47.3799Z" fill="#E1F0F5"/>
<path d="M62.5812 33.4268H61.6445V34.6156H62.5812V33.4268Z" fill="#E1F0F5"/>
<path d="M62.5812 35.4199H61.6445V36.6088H62.5812V35.4199Z" fill="#E1F0F5"/>
<path d="M62.5812 37.4131H61.6445V38.602H62.5812V37.4131Z" fill="#E1F0F5"/>
<path d="M62.5812 39.4053H61.6445V40.5942H62.5812V39.4053Z" fill="#E1F0F5"/>
<path d="M62.5812 41.3984H61.6445V42.5873H62.5812V41.3984Z" fill="#E1F0F5"/>
<path d="M62.5812 43.3945H61.6445V44.5834H62.5812V43.3945Z" fill="#E1F0F5"/>
<path d="M62.5812 47.3799H61.6445V48.5688H62.5812V47.3799Z" fill="#E1F0F5"/>
<path d="M62.5812 49.3721H61.6445V50.561H62.5812V49.3721Z" fill="#E1F0F5"/>
<path d="M62.5812 55.3506H61.6445V56.5395H62.5812V55.3506Z" fill="#E1F0F5"/>
<path d="M62.5812 57.3467H61.6445V58.5356H62.5812V57.3467Z" fill="#E1F0F5"/>
<path d="M62.5812 59.3389H61.6445V60.5277H62.5812V59.3389Z" fill="#E1F0F5"/>
<path d="M62.5812 61.332H61.6445V62.5209H62.5812V61.332Z" fill="#E1F0F5"/>
<path d="M62.5812 63.3252H61.6445V64.5141H62.5812V63.3252Z" fill="#E1F0F5"/>
<path d="M62.5812 65.3174H61.6445V66.5063H62.5812V65.3174Z" fill="#E1F0F5"/>
<path d="M62.5812 67.3105H61.6445V68.4994H62.5812V67.3105Z" fill="#E1F0F5"/>
<path d="M61.0939 33.4268H60.1572V34.6156H61.0939V33.4268Z" fill="#E1F0F5"/>
<path d="M61.0939 35.4199H60.1572V36.6088H61.0939V35.4199Z" fill="#E1F0F5"/>
<path d="M61.0939 37.4131H60.1572V38.602H61.0939V37.4131Z" fill="#E1F0F5"/>
<path d="M61.0939 39.4053H60.1572V40.5942H61.0939V39.4053Z" fill="#E1F0F5"/>
<path d="M61.0939 41.3984H60.1572V42.5873H61.0939V41.3984Z" fill="#E1F0F5"/>
<path d="M61.0939 43.3945H60.1572V44.5834H61.0939V43.3945Z" fill="#E1F0F5"/>
<path d="M61.0939 49.3721H60.1572V50.561H61.0939V49.3721Z" fill="#E1F0F5"/>
<path d="M61.0939 51.3652H60.1572V52.5541H61.0939V51.3652Z" fill="#E1F0F5"/>
<path d="M61.0939 53.3584H60.1572V54.5473H61.0939V53.3584Z" fill="#E1F0F5"/>
<path d="M61.0939 55.3506H60.1572V56.5395H61.0939V55.3506Z" fill="#E1F0F5"/>
<path d="M61.0939 57.3467H60.1572V58.5356H61.0939V57.3467Z" fill="#E1F0F5"/>
<path d="M61.0939 59.3389H60.1572V60.5277H61.0939V59.3389Z" fill="#E1F0F5"/>
<path d="M61.0939 61.332H60.1572V62.5209H61.0939V61.332Z" fill="#E1F0F5"/>
<path d="M61.0939 63.3252H60.1572V64.5141H61.0939V63.3252Z" fill="#E1F0F5"/>
<path d="M61.0939 65.3174H60.1572V66.5063H61.0939V65.3174Z" fill="#E1F0F5"/>
<path d="M61.0939 67.3105H60.1572V68.4994H61.0939V67.3105Z" fill="#E1F0F5"/>
<path d="M61.0939 69.3027H60.1572V70.4916H61.0939V69.3027Z" fill="#E1F0F5"/>
<path d="M61.0939 73.292H60.1572V74.4809H61.0939V73.292Z" fill="#E1F0F5"/>
<path d="M59.6036 33.4268H58.667V34.6156H59.6036V33.4268Z" fill="#E1F0F5"/>
<path d="M59.6036 35.4199H58.667V36.6088H59.6036V35.4199Z" fill="#E1F0F5"/>
<path d="M59.6036 37.4131H58.667V38.602H59.6036V37.4131Z" fill="#E1F0F5"/>
<path d="M59.6036 39.4053H58.667V40.5942H59.6036V39.4053Z" fill="#E1F0F5"/>
<path d="M59.6036 41.3984H58.667V42.5873H59.6036V41.3984Z" fill="#E1F0F5"/>
<path d="M59.6036 43.3945H58.667V44.5834H59.6036V43.3945Z" fill="#E1F0F5"/>
<path d="M59.6036 49.3721H58.667V50.561H59.6036V49.3721Z" fill="#E1F0F5"/>
<path d="M59.6036 51.3652H58.667V52.5541H59.6036V51.3652Z" fill="#E1F0F5"/>
<path d="M59.6036 53.3584H58.667V54.5473H59.6036V53.3584Z" fill="#E1F0F5"/>
<path d="M59.6036 55.3506H58.667V56.5395H59.6036V55.3506Z" fill="#E1F0F5"/>
<path d="M59.6036 61.332H58.667V62.5209H59.6036V61.332Z" fill="#E1F0F5"/>
<path d="M59.6036 63.3252H58.667V64.5141H59.6036V63.3252Z" fill="#E1F0F5"/>
<path d="M59.6036 65.3174H58.667V66.5063H59.6036V65.3174Z" fill="#E1F0F5"/>
<path d="M59.6036 67.3105H58.667V68.4994H59.6036V67.3105Z" fill="#E1F0F5"/>
<path d="M59.6036 69.3027H58.667V70.4916H59.6036V69.3027Z" fill="#E1F0F5"/>
<path d="M59.6036 73.292H58.667V74.4809H59.6036V73.292Z" fill="#E1F0F5"/>
<path d="M59.6036 75.2842H58.667V76.4731H59.6036V75.2842Z" fill="#E1F0F5"/>
<path d="M46.1056 51.96H45.1689V53.1488H46.1056V51.96Z" fill="#E1F0F5"/>
<path d="M46.1056 53.9521H45.1689V55.141H46.1056V53.9521Z" fill="#E1F0F5"/>
<path d="M46.1056 55.9453H45.1689V57.1342H46.1056V55.9453Z" fill="#E1F0F5"/>
<path d="M46.1056 57.9414H45.1689V59.1303H46.1056V57.9414Z" fill="#E1F0F5"/>
<path d="M46.1056 59.9336H45.1689V61.1225H46.1056V59.9336Z" fill="#E1F0F5"/>
<path d="M46.1056 61.9268H45.1689V63.1156H46.1056V61.9268Z" fill="#E1F0F5"/>
<path d="M46.1056 63.9189H45.1689V65.1078H46.1056V63.9189Z" fill="#E1F0F5"/>
<path d="M46.1056 69.8975H45.1689V71.0863H46.1056V69.8975Z" fill="#E1F0F5"/>
<path d="M46.1056 71.8936H45.1689V73.0824H46.1056V71.8936Z" fill="#E1F0F5"/>
<path d="M46.1056 73.8857H45.1689V75.0746H46.1056V73.8857Z" fill="#E1F0F5"/>
<path d="M44.6173 51.96H43.6807V53.1488H44.6173V51.96Z" fill="#E1F0F5"/>
<path d="M44.6173 53.9521H43.6807V55.141H44.6173V53.9521Z" fill="#E1F0F5"/>
<path d="M44.6173 55.9453H43.6807V57.1342H44.6173V55.9453Z" fill="#E1F0F5"/>
<path d="M44.6173 57.9414H43.6807V59.1303H44.6173V57.9414Z" fill="#E1F0F5"/>
<path d="M44.6173 59.9336H43.6807V61.1225H44.6173V59.9336Z" fill="#E1F0F5"/>
<path d="M44.6173 61.9268H43.6807V63.1156H44.6173V61.9268Z" fill="#E1F0F5"/>
<path d="M44.6173 63.9189H43.6807V65.1078H44.6173V63.9189Z" fill="#E1F0F5"/>
<path d="M43.13 51.96H42.1934V53.1488H43.13V51.96Z" fill="#E1F0F5"/>
<path d="M43.13 53.9521H42.1934V55.141H43.13V53.9521Z" fill="#E1F0F5"/>
<path d="M43.13 55.9453H42.1934V57.1342H43.13V55.9453Z" fill="#E1F0F5"/>
<path d="M43.13 57.9414H42.1934V59.1303H43.13V57.9414Z" fill="#E1F0F5"/>
<path d="M43.13 59.9336H42.1934V61.1225H43.13V59.9336Z" fill="#E1F0F5"/>
<path d="M43.13 61.9268H42.1934V63.1156H43.13V61.9268Z" fill="#E1F0F5"/>
<path d="M43.13 63.9189H42.1934V65.1078H43.13V63.9189Z" fill="#E1F0F5"/>
<path d="M41.6427 51.96H40.7061V53.1488H41.6427V51.96Z" fill="#E1F0F5"/>
<path d="M41.6427 53.9521H40.7061V55.141H41.6427V53.9521Z" fill="#E1F0F5"/>
<path d="M41.6427 55.9453H40.7061V57.1342H41.6427V55.9453Z" fill="#E1F0F5"/>
<path d="M41.6427 57.9414H40.7061V59.1303H41.6427V57.9414Z" fill="#E1F0F5"/>
<path d="M41.6427 59.9336H40.7061V61.1225H41.6427V59.9336Z" fill="#E1F0F5"/>
<path d="M41.6427 61.9268H40.7061V63.1156H41.6427V61.9268Z" fill="#E1F0F5"/>
<path d="M41.6427 63.9189H40.7061V65.1078H41.6427V63.9189Z" fill="#E1F0F5"/>
<path d="M41.6427 65.9121H40.7061V67.101H41.6427V65.9121Z" fill="#E1F0F5"/>
<path d="M41.6427 67.9043H40.7061V69.0932H41.6427V67.9043Z" fill="#E1F0F5"/>
<path d="M41.6427 69.8975H40.7061V71.0863H41.6427V69.8975Z" fill="#E1F0F5"/>
<path d="M41.6427 71.8936H40.7061V73.0824H41.6427V71.8936Z" fill="#E1F0F5"/>
<path d="M40.1554 51.96H39.2188V53.1488H40.1554V51.96Z" fill="#E1F0F5"/>
<path d="M40.1554 53.9521H39.2188V55.141H40.1554V53.9521Z" fill="#E1F0F5"/>
<path d="M40.1554 55.9453H39.2188V57.1342H40.1554V55.9453Z" fill="#E1F0F5"/>
<path d="M40.1554 57.9414H39.2188V59.1303H40.1554V57.9414Z" fill="#E1F0F5"/>
<path d="M40.1554 59.9336H39.2188V61.1225H40.1554V59.9336Z" fill="#E1F0F5"/>
<path d="M40.1554 61.9268H39.2188V63.1156H40.1554V61.9268Z" fill="#E1F0F5"/>
<path d="M40.1554 63.9189H39.2188V65.1078H40.1554V63.9189Z" fill="#E1F0F5"/>
<path d="M40.1554 65.9121H39.2188V67.101H40.1554V65.9121Z" fill="#E1F0F5"/>
<path d="M40.1554 67.9043H39.2188V69.0932H40.1554V67.9043Z" fill="#E1F0F5"/>
<path d="M40.1554 69.8975H39.2188V71.0863H40.1554V69.8975Z" fill="#E1F0F5"/>
<path d="M40.1554 71.8936H39.2188V73.0824H40.1554V71.8936Z" fill="#E1F0F5"/>
<path d="M40.1554 73.8857H39.2188V75.0746H40.1554V73.8857Z" fill="#E1F0F5"/>
<path d="M40.1554 79.8643H39.2188V81.0531H40.1554V79.8643Z" fill="#E1F0F5"/>
<path d="M40.1554 81.8574H39.2188V83.0463H40.1554V81.8574Z" fill="#E1F0F5"/>
<path d="M38.6681 51.96H37.7314V53.1488H38.6681V51.96Z" fill="#E1F0F5"/>
<path d="M38.6681 53.9521H37.7314V55.141H38.6681V53.9521Z" fill="#E1F0F5"/>
<path d="M38.6681 55.9453H37.7314V57.1342H38.6681V55.9453Z" fill="#E1F0F5"/>
<path d="M38.6681 61.9268H37.7314V63.1156H38.6681V61.9268Z" fill="#E1F0F5"/>
<path d="M38.6681 63.9189H37.7314V65.1078H38.6681V63.9189Z" fill="#E1F0F5"/>
<path d="M38.6681 65.9121H37.7314V67.101H38.6681V65.9121Z" fill="#E1F0F5"/>
<path d="M38.6681 67.9043H37.7314V69.0932H38.6681V67.9043Z" fill="#E1F0F5"/>
<path d="M38.6681 69.8975H37.7314V71.0863H38.6681V69.8975Z" fill="#E1F0F5"/>
<path d="M38.6681 71.8936H37.7314V73.0824H38.6681V71.8936Z" fill="#E1F0F5"/>
<path d="M38.6681 73.8857H37.7314V75.0746H38.6681V73.8857Z" fill="#E1F0F5"/>
<path d="M38.6681 79.8643H37.7314V81.0531H38.6681V79.8643Z" fill="#E1F0F5"/>
<path d="M38.6681 81.8574H37.7314V83.0463H38.6681V81.8574Z" fill="#E1F0F5"/>
<path d="M38.6681 83.8525H37.7314V85.0414H38.6681V83.8525Z" fill="#E1F0F5"/>
<path d="M23.0753 40H22.1387V41.1889H23.0753V40Z" fill="#E1F0F5"/>
<path d="M23.0753 41.9932H22.1387V43.182H23.0753V41.9932Z" fill="#E1F0F5"/>
<path d="M23.0753 43.9883H22.1387V45.1772H23.0753V43.9883Z" fill="#E1F0F5"/>
<path d="M23.0753 45.9814H22.1387V47.1703H23.0753V45.9814Z" fill="#E1F0F5"/>
<path d="M23.0753 47.9736H22.1387V49.1625H23.0753V47.9736Z" fill="#E1F0F5"/>
<path d="M23.0753 49.9668H22.1387V51.1557H23.0753V49.9668Z" fill="#E1F0F5"/>
<path d="M23.0753 51.96H22.1387V53.1488H23.0753V51.96Z" fill="#E1F0F5"/>
<path d="M23.0753 53.9521H22.1387V55.141H23.0753V53.9521Z" fill="#E1F0F5"/>
<path d="M23.0753 55.9453H22.1387V57.1342H23.0753V55.9453Z" fill="#E1F0F5"/>
<path d="M23.0753 57.9414H22.1387V59.1303H23.0753V57.9414Z" fill="#E1F0F5"/>
<path d="M23.0753 59.9336H22.1387V61.1225H23.0753V59.9336Z" fill="#E1F0F5"/>
<path d="M23.0753 61.9268H22.1387V63.1156H23.0753V61.9268Z" fill="#E1F0F5"/>
<path d="M23.0753 63.9189H22.1387V65.1078H23.0753V63.9189Z" fill="#E1F0F5"/>
<path d="M23.0753 65.9121H22.1387V67.101H23.0753V65.9121Z" fill="#E1F0F5"/>
<path d="M23.0753 67.9043H22.1387V69.0932H23.0753V67.9043Z" fill="#E1F0F5"/>
<path d="M23.0753 69.8975H22.1387V71.0863H23.0753V69.8975Z" fill="#E1F0F5"/>
<path d="M23.0753 71.8936H22.1387V73.0824H23.0753V71.8936Z" fill="#E1F0F5"/>
<path d="M23.0753 73.8857H22.1387V75.0746H23.0753V73.8857Z" fill="#E1F0F5"/>
<path d="M23.0753 75.8789H22.1387V77.0678H23.0753V75.8789Z" fill="#E1F0F5"/>
<path d="M23.0753 77.8721H22.1387V79.061H23.0753V77.8721Z" fill="#E1F0F5"/>
<path d="M23.0753 79.8643H22.1387V81.0531H23.0753V79.8643Z" fill="#E1F0F5"/>
<path d="M23.0753 81.8574H22.1387V83.0463H23.0753V81.8574Z" fill="#E1F0F5"/>
<path d="M23.0753 83.8525H22.1387V85.0414H23.0753V83.8525Z" fill="#E1F0F5"/>
<path d="M21.588 40H20.6514V41.1889H21.588V40Z" fill="#E1F0F5"/>
<path d="M21.588 41.9932H20.6514V43.182H21.588V41.9932Z" fill="#E1F0F5"/>
<path d="M21.588 43.9883H20.6514V45.1772H21.588V43.9883Z" fill="#E1F0F5"/>
<path d="M21.588 45.9814H20.6514V47.1703H21.588V45.9814Z" fill="#E1F0F5"/>
<path d="M21.588 47.9736H20.6514V49.1625H21.588V47.9736Z" fill="#E1F0F5"/>
<path d="M21.588 49.9668H20.6514V51.1557H21.588V49.9668Z" fill="#E1F0F5"/>
<path d="M21.588 51.96H20.6514V53.1488H21.588V51.96Z" fill="#E1F0F5"/>
<path d="M21.588 53.9521H20.6514V55.141H21.588V53.9521Z" fill="#E1F0F5"/>
<path d="M21.588 55.9453H20.6514V57.1342H21.588V55.9453Z" fill="#E1F0F5"/>
<path d="M21.588 57.9414H20.6514V59.1303H21.588V57.9414Z" fill="#E1F0F5"/>
<path d="M21.588 59.9336H20.6514V61.1225H21.588V59.9336Z" fill="#E1F0F5"/>
<path d="M21.588 61.9268H20.6514V63.1156H21.588V61.9268Z" fill="#E1F0F5"/>
<path d="M21.588 63.9189H20.6514V65.1078H21.588V63.9189Z" fill="#E1F0F5"/>
<path d="M21.588 65.9121H20.6514V67.101H21.588V65.9121Z" fill="#E1F0F5"/>
<path d="M21.588 67.9043H20.6514V69.0932H21.588V67.9043Z" fill="#E1F0F5"/>
<path d="M21.588 69.8975H20.6514V71.0863H21.588V69.8975Z" fill="#E1F0F5"/>
<path d="M21.588 71.8936H20.6514V73.0824H21.588V71.8936Z" fill="#E1F0F5"/>
<path d="M21.588 73.8857H20.6514V75.0746H21.588V73.8857Z" fill="#E1F0F5"/>
<path d="M21.588 75.8789H20.6514V77.0678H21.588V75.8789Z" fill="#E1F0F5"/>
<path d="M20.0997 40H19.1631V41.1889H20.0997V40Z" fill="#E1F0F5"/>
<path d="M20.0997 41.9932H19.1631V43.182H20.0997V41.9932Z" fill="#E1F0F5"/>
<path d="M20.0997 43.9883H19.1631V45.1772H20.0997V43.9883Z" fill="#E1F0F5"/>
<path d="M20.0997 45.9814H19.1631V47.1703H20.0997V45.9814Z" fill="#E1F0F5"/>
<path d="M20.0997 47.9736H19.1631V49.1625H20.0997V47.9736Z" fill="#E1F0F5"/>
<path d="M20.0997 49.9668H19.1631V51.1557H20.0997V49.9668Z" fill="#E1F0F5"/>
<path d="M20.0997 51.96H19.1631V53.1488H20.0997V51.96Z" fill="#E1F0F5"/>
<path d="M20.0997 53.9521H19.1631V55.141H20.0997V53.9521Z" fill="#E1F0F5"/>
<path d="M20.0997 55.9453H19.1631V57.1342H20.0997V55.9453Z" fill="#E1F0F5"/>
<path d="M20.0997 57.9414H19.1631V59.1303H20.0997V57.9414Z" fill="#E1F0F5"/>
<path d="M20.0997 59.9336H19.1631V61.1225H20.0997V59.9336Z" fill="#E1F0F5"/>
<path d="M20.0997 61.9268H19.1631V63.1156H20.0997V61.9268Z" fill="#E1F0F5"/>
<path d="M20.0997 63.9189H19.1631V65.1078H20.0997V63.9189Z" fill="#E1F0F5"/>
<path d="M20.0997 65.9121H19.1631V67.101H20.0997V65.9121Z" fill="#E1F0F5"/>
<path d="M20.0997 67.9043H19.1631V69.0932H20.0997V67.9043Z" fill="#E1F0F5"/>
<path d="M20.0997 69.8975H19.1631V71.0863H20.0997V69.8975Z" fill="#E1F0F5"/>
<path d="M20.0997 71.8936H19.1631V73.0824H20.0997V71.8936Z" fill="#E1F0F5"/>
<path d="M20.0997 73.8857H19.1631V75.0746H20.0997V73.8857Z" fill="#E1F0F5"/>
<path d="M20.0997 75.8789H19.1631V77.0678H20.0997V75.8789Z" fill="#E1F0F5"/>
<path d="M18.6124 40H17.6758V41.1889H18.6124V40Z" fill="#E1F0F5"/>
<path d="M18.6124 41.9932H17.6758V43.182H18.6124V41.9932Z" fill="#E1F0F5"/>
<path d="M18.6124 43.9883H17.6758V45.1772H18.6124V43.9883Z" fill="#E1F0F5"/>
<path d="M18.6124 45.9814H17.6758V47.1703H18.6124V45.9814Z" fill="#E1F0F5"/>
<path d="M18.6124 47.9736H17.6758V49.1625H18.6124V47.9736Z" fill="#E1F0F5"/>
<path d="M18.6124 49.9668H17.6758V51.1557H18.6124V49.9668Z" fill="#E1F0F5"/>
<path d="M18.6124 51.96H17.6758V53.1488H18.6124V51.96Z" fill="#E1F0F5"/>
<path d="M18.6124 53.9521H17.6758V55.141H18.6124V53.9521Z" fill="#E1F0F5"/>
<path d="M18.6124 55.9453H17.6758V57.1342H18.6124V55.9453Z" fill="#E1F0F5"/>
<path d="M18.6124 57.9414H17.6758V59.1303H18.6124V57.9414Z" fill="#E1F0F5"/>
<path d="M18.6124 59.9336H17.6758V61.1225H18.6124V59.9336Z" fill="#E1F0F5"/>
<path d="M18.6124 61.9268H17.6758V63.1156H18.6124V61.9268Z" fill="#E1F0F5"/>
<path d="M18.6124 63.9189H17.6758V65.1078H18.6124V63.9189Z" fill="#E1F0F5"/>
<path d="M18.6124 65.9121H17.6758V67.101H18.6124V65.9121Z" fill="#E1F0F5"/>
<path d="M18.6124 67.9043H17.6758V69.0932H18.6124V67.9043Z" fill="#E1F0F5"/>
<path d="M17.1251 40H16.1885V41.1889H17.1251V40Z" fill="#E1F0F5"/>
<path d="M17.1251 41.9932H16.1885V43.182H17.1251V41.9932Z" fill="#E1F0F5"/>
<path d="M17.1251 43.9883H16.1885V45.1772H17.1251V43.9883Z" fill="#E1F0F5"/>
<path d="M17.1251 45.9814H16.1885V47.1703H17.1251V45.9814Z" fill="#E1F0F5"/>
<path d="M17.1251 47.9736H16.1885V49.1625H17.1251V47.9736Z" fill="#E1F0F5"/>
<path d="M17.1251 49.9668H16.1885V51.1557H17.1251V49.9668Z" fill="#E1F0F5"/>
<path d="M17.1251 51.96H16.1885V53.1488H17.1251V51.96Z" fill="#E1F0F5"/>
<path d="M17.1251 53.9521H16.1885V55.141H17.1251V53.9521Z" fill="#E1F0F5"/>
<path d="M17.1251 55.9453H16.1885V57.1342H17.1251V55.9453Z" fill="#E1F0F5"/>
<path d="M17.1251 57.9414H16.1885V59.1303H17.1251V57.9414Z" fill="#E1F0F5"/>
<path d="M17.1251 59.9336H16.1885V61.1225H17.1251V59.9336Z" fill="#E1F0F5"/>
<path d="M17.1251 61.9268H16.1885V63.1156H17.1251V61.9268Z" fill="#E1F0F5"/>
<path d="M17.1251 63.9189H16.1885V65.1078H17.1251V63.9189Z" fill="#E1F0F5"/>
<path d="M15.6349 40H14.6982V41.1889H15.6349V40Z" fill="#E1F0F5"/>
<path d="M15.6349 41.9932H14.6982V43.182H15.6349V41.9932Z" fill="#E1F0F5"/>
<path d="M15.6349 43.9883H14.6982V45.1772H15.6349V43.9883Z" fill="#E1F0F5"/>
<path d="M15.6349 45.9814H14.6982V47.1703H15.6349V45.9814Z" fill="#E1F0F5"/>
<path d="M15.6349 47.9736H14.6982V49.1625H15.6349V47.9736Z" fill="#E1F0F5"/>
<path d="M15.6349 49.9668H14.6982V51.1557H15.6349V49.9668Z" fill="#E1F0F5"/>
<path d="M15.6349 51.96H14.6982V53.1488H15.6349V51.96Z" fill="#E1F0F5"/>
<path d="M15.6349 53.9521H14.6982V55.141H15.6349V53.9521Z" fill="#E1F0F5"/>
<path d="M15.6349 55.9453H14.6982V57.1342H15.6349V55.9453Z" fill="#E1F0F5"/>
<path d="M15.6349 57.9414H14.6982V59.1303H15.6349V57.9414Z" fill="#E1F0F5"/>
<path d="M15.6349 59.9336H14.6982V61.1225H15.6349V59.9336Z" fill="#E1F0F5"/>
<path d="M15.6349 61.9268H14.6982V63.1156H15.6349V61.9268Z" fill="#E1F0F5"/>
<path d="M102.471 39.4053H101.534V40.5942H102.471V39.4053Z" fill="#E1F0F5"/>
<path d="M102.471 41.3984H101.534V42.5873H102.471V41.3984Z" fill="#E1F0F5"/>
<path d="M102.471 43.3945H101.534V44.5834H102.471V43.3945Z" fill="#E1F0F5"/>
<path d="M102.471 45.3867H101.534V46.5756H102.471V45.3867Z" fill="#E1F0F5"/>
<path d="M102.471 47.3799H101.534V48.5688H102.471V47.3799Z" fill="#E1F0F5"/>
<path d="M102.471 49.3721H101.534V50.561H102.471V49.3721Z" fill="#E1F0F5"/>
<path d="M102.471 51.3652H101.534V52.5541H102.471V51.3652Z" fill="#E1F0F5"/>
<path d="M102.471 53.3584H101.534V54.5473H102.471V53.3584Z" fill="#E1F0F5"/>
<path d="M102.471 55.3506H101.534V56.5395H102.471V55.3506Z" fill="#E1F0F5"/>
<path d="M102.471 57.3467H101.534V58.5356H102.471V57.3467Z" fill="#E1F0F5"/>
<path d="M102.471 59.3389H101.534V60.5277H102.471V59.3389Z" fill="#E1F0F5"/>
<path d="M102.471 61.332H101.534V62.5209H102.471V61.332Z" fill="#E1F0F5"/>
<path d="M102.471 63.3252H101.534V64.5141H102.471V63.3252Z" fill="#E1F0F5"/>
<path d="M102.471 65.3174H101.534V66.5063H102.471V65.3174Z" fill="#E1F0F5"/>
<path d="M102.471 67.3105H101.534V68.4994H102.471V67.3105Z" fill="#E1F0F5"/>
<path d="M102.471 69.3027H101.534V70.4916H102.471V69.3027Z" fill="#E1F0F5"/>
<path d="M102.471 71.2988H101.534V72.4877H102.471V71.2988Z" fill="#E1F0F5"/>
<path d="M102.471 75.2842H101.534V76.4731H102.471V75.2842Z" fill="#E1F0F5"/>
<path d="M102.471 77.2773H101.534V78.4662H102.471V77.2773Z" fill="#E1F0F5"/>
<path d="M102.471 79.2695H101.534V80.4584H102.471V79.2695Z" fill="#E1F0F5"/>
<path d="M102.471 81.2627H101.534V82.4516H102.471V81.2627Z" fill="#E1F0F5"/>
<path d="M102.471 83.2559H101.534V84.4447H102.471V83.2559Z" fill="#E1F0F5"/>
<path d="M100.984 39.4053H100.047V40.5942H100.984V39.4053Z" fill="#E1F0F5"/>
<path d="M100.984 41.3984H100.047V42.5873H100.984V41.3984Z" fill="#E1F0F5"/>
<path d="M100.984 43.3945H100.047V44.5834H100.984V43.3945Z" fill="#E1F0F5"/>
<path d="M100.984 45.3867H100.047V46.5756H100.984V45.3867Z" fill="#E1F0F5"/>
<path d="M100.984 47.3799H100.047V48.5688H100.984V47.3799Z" fill="#E1F0F5"/>
<path d="M100.984 49.3721H100.047V50.561H100.984V49.3721Z" fill="#E1F0F5"/>
<path d="M100.984 51.3652H100.047V52.5541H100.984V51.3652Z" fill="#E1F0F5"/>
<path d="M100.984 53.3584H100.047V54.5473H100.984V53.3584Z" fill="#E1F0F5"/>
<path d="M100.984 55.3506H100.047V56.5395H100.984V55.3506Z" fill="#E1F0F5"/>
<path d="M100.984 57.3467H100.047V58.5356H100.984V57.3467Z" fill="#E1F0F5"/>
<path d="M100.984 59.3389H100.047V60.5277H100.984V59.3389Z" fill="#E1F0F5"/>
<path d="M100.984 61.332H100.047V62.5209H100.984V61.332Z" fill="#E1F0F5"/>
<path d="M100.984 63.3252H100.047V64.5141H100.984V63.3252Z" fill="#E1F0F5"/>
<path d="M100.984 65.3174H100.047V66.5063H100.984V65.3174Z" fill="#E1F0F5"/>
<path d="M100.984 67.3105H100.047V68.4994H100.984V67.3105Z" fill="#E1F0F5"/>
<path d="M100.984 69.3027H100.047V70.4916H100.984V69.3027Z" fill="#E1F0F5"/>
<path d="M100.984 81.2627H100.047V82.4516H100.984V81.2627Z" fill="#E1F0F5"/>
<path d="M100.984 83.2559H100.047V84.4447H100.984V83.2559Z" fill="#E1F0F5"/>
<path d="M99.4962 39.4053H98.5596V40.5942H99.4962V39.4053Z" fill="#E1F0F5"/>
<path d="M99.4962 41.3984H98.5596V42.5873H99.4962V41.3984Z" fill="#E1F0F5"/>
<path d="M99.4962 43.3945H98.5596V44.5834H99.4962V43.3945Z" fill="#E1F0F5"/>
<path d="M99.4962 45.3867H98.5596V46.5756H99.4962V45.3867Z" fill="#E1F0F5"/>
<path d="M99.4962 47.3799H98.5596V48.5688H99.4962V47.3799Z" fill="#E1F0F5"/>
<path d="M99.4962 49.3721H98.5596V50.561H99.4962V49.3721Z" fill="#E1F0F5"/>
<path d="M99.4962 51.3652H98.5596V52.5541H99.4962V51.3652Z" fill="#E1F0F5"/>
<path d="M99.4962 53.3584H98.5596V54.5473H99.4962V53.3584Z" fill="#E1F0F5"/>
<path d="M99.4962 55.3506H98.5596V56.5395H99.4962V55.3506Z" fill="#E1F0F5"/>
<path d="M99.4962 57.3467H98.5596V58.5356H99.4962V57.3467Z" fill="#E1F0F5"/>
<path d="M99.4962 59.3389H98.5596V60.5277H99.4962V59.3389Z" fill="#E1F0F5"/>
<path d="M99.4962 61.332H98.5596V62.5209H99.4962V61.332Z" fill="#E1F0F5"/>
<path d="M99.4962 63.3252H98.5596V64.5141H99.4962V63.3252Z" fill="#E1F0F5"/>
<path d="M99.4962 65.3174H98.5596V66.5063H99.4962V65.3174Z" fill="#E1F0F5"/>
<path d="M99.4962 67.3105H98.5596V68.4994H99.4962V67.3105Z" fill="#E1F0F5"/>
<path d="M99.4962 69.3027H98.5596V70.4916H99.4962V69.3027Z" fill="#E1F0F5"/>
<path d="M99.4962 73.292H98.5596V74.4809H99.4962V73.292Z" fill="#E1F0F5"/>
<path d="M99.4962 75.2842H98.5596V76.4731H99.4962V75.2842Z" fill="#E1F0F5"/>
<path d="M99.4962 77.2773H98.5596V78.4662H99.4962V77.2773Z" fill="#E1F0F5"/>
<path d="M99.4962 79.2695H98.5596V80.4584H99.4962V79.2695Z" fill="#E1F0F5"/>
<path d="M99.4962 83.2559H98.5596V84.4447H99.4962V83.2559Z" fill="#E1F0F5"/>
<path d="M107.872 64.5137H106.936V65.7026H107.872V64.5137Z" fill="#E1F0F5"/>
<path d="M107.872 66.5068H106.936V67.6957H107.872V66.5068Z" fill="#E1F0F5"/>
<path d="M107.872 68.499H106.936V69.6879H107.872V68.499Z" fill="#E1F0F5"/>
<path d="M107.872 70.4951H106.936V71.684H107.872V70.4951Z" fill="#E1F0F5"/>
<path d="M107.872 72.4883H106.936V73.6772H107.872V72.4883Z" fill="#E1F0F5"/>
<path d="M107.872 74.4805H106.936V75.6693H107.872V74.4805Z" fill="#E1F0F5"/>
<path d="M107.872 76.4736H106.936V77.6625H107.872V76.4736Z" fill="#E1F0F5"/>
<path d="M107.872 80.459H106.936V81.6479H107.872V80.459Z" fill="#E1F0F5"/>
<path d="M107.872 82.4512H106.936V83.64H107.872V82.4512Z" fill="#E1F0F5"/>
<path d="M107.872 84.4443H106.936V85.6332H107.872V84.4443Z" fill="#E1F0F5"/>
<path d="M107.872 86.4404H106.936V87.6293H107.872V86.4404Z" fill="#E1F0F5"/>
<path d="M107.872 88.4326H106.936V89.6215H107.872V88.4326Z" fill="#E1F0F5"/>
<path d="M107.872 90.4258H106.936V91.6147H107.872V90.4258Z" fill="#E1F0F5"/>
<path d="M107.872 92.4189H106.936V93.6078H107.872V92.4189Z" fill="#E1F0F5"/>
<path d="M107.872 94.4111H106.936V95.6H107.872V94.4111Z" fill="#E1F0F5"/>
<path d="M106.385 64.5137H105.448V65.7026H106.385V64.5137Z" fill="#E1F0F5"/>
<path d="M106.385 66.5068H105.448V67.6957H106.385V66.5068Z" fill="#E1F0F5"/>
<path d="M106.385 68.499H105.448V69.6879H106.385V68.499Z" fill="#E1F0F5"/>
<path d="M106.385 70.4951H105.448V71.684H106.385V70.4951Z" fill="#E1F0F5"/>
<path d="M106.385 72.4883H105.448V73.6772H106.385V72.4883Z" fill="#E1F0F5"/>
<path d="M106.385 74.4805H105.448V75.6693H106.385V74.4805Z" fill="#E1F0F5"/>
<path d="M106.385 80.459H105.448V81.6479H106.385V80.459Z" fill="#E1F0F5"/>
<path d="M106.385 82.4512H105.448V83.64H106.385V82.4512Z" fill="#E1F0F5"/>
<path d="M106.385 84.4443H105.448V85.6332H106.385V84.4443Z" fill="#E1F0F5"/>
<path d="M106.385 86.4404H105.448V87.6293H106.385V86.4404Z" fill="#E1F0F5"/>
<path d="M106.385 88.4326H105.448V89.6215H106.385V88.4326Z" fill="#E1F0F5"/>
<path d="M106.385 90.4258H105.448V91.6147H106.385V90.4258Z" fill="#E1F0F5"/>
<path d="M106.385 92.4189H105.448V93.6078H106.385V92.4189Z" fill="#E1F0F5"/>
<path d="M106.385 94.4111H105.448V95.6H106.385V94.4111Z" fill="#E1F0F5"/>
<path d="M104.898 64.5137H103.961V65.7026H104.898V64.5137Z" fill="#E1F0F5"/>
<path d="M104.898 66.5068H103.961V67.6957H104.898V66.5068Z" fill="#E1F0F5"/>
<path d="M104.898 68.499H103.961V69.6879H104.898V68.499Z" fill="#E1F0F5"/>
<path d="M104.898 70.4951H103.961V71.684H104.898V70.4951Z" fill="#E1F0F5"/>
<path d="M104.898 72.4883H103.961V73.6772H104.898V72.4883Z" fill="#E1F0F5"/>
<path d="M104.898 74.4805H103.961V75.6693H104.898V74.4805Z" fill="#E1F0F5"/>
<path d="M104.898 78.4658H103.961V79.6547H104.898V78.4658Z" fill="#E1F0F5"/>
<path d="M104.898 80.459H103.961V81.6479H104.898V80.459Z" fill="#E1F0F5"/>
<path d="M104.898 82.4512H103.961V83.64H104.898V82.4512Z" fill="#E1F0F5"/>
<path d="M104.898 84.4443H103.961V85.6332H104.898V84.4443Z" fill="#E1F0F5"/>
<path d="M104.898 86.4404H103.961V87.6293H104.898V86.4404Z" fill="#E1F0F5"/>
<path d="M104.898 88.4326H103.961V89.6215H104.898V88.4326Z" fill="#E1F0F5"/>
<path d="M104.898 90.4258H103.961V91.6147H104.898V90.4258Z" fill="#E1F0F5"/>
<path d="M104.898 92.4189H103.961V93.6078H104.898V92.4189Z" fill="#E1F0F5"/>
<path d="M104.898 94.4111H103.961V95.6H104.898V94.4111Z" fill="#E1F0F5"/>
<path d="M73.5441 53.3584H72.6074V54.5473H73.5441V53.3584Z" fill="#E1F0F5"/>
<path d="M73.5441 55.3506H72.6074V56.5395H73.5441V55.3506Z" fill="#E1F0F5"/>
<path d="M73.5441 57.3467H72.6074V58.5356H73.5441V57.3467Z" fill="#E1F0F5"/>
<path d="M73.5441 59.3389H72.6074V60.5277H73.5441V59.3389Z" fill="#E1F0F5"/>
<path d="M73.5441 61.332H72.6074V62.5209H73.5441V61.332Z" fill="#E1F0F5"/>
<path d="M73.5441 63.3252H72.6074V64.5141H73.5441V63.3252Z" fill="#E1F0F5"/>
<path d="M73.5441 65.3174H72.6074V66.5063H73.5441V65.3174Z" fill="#E1F0F5"/>
<path d="M73.5441 67.3105H72.6074V68.4994H73.5441V67.3105Z" fill="#E1F0F5"/>
<path d="M73.5441 69.3027H72.6074V70.4916H73.5441V69.3027Z" fill="#E1F0F5"/>
<path d="M73.5441 71.2988H72.6074V72.4877H73.5441V71.2988Z" fill="#E1F0F5"/>
<path d="M73.5441 73.292H72.6074V74.4809H73.5441V73.292Z" fill="#E1F0F5"/>
<path d="M73.5441 75.2842H72.6074V76.4731H73.5441V75.2842Z" fill="#E1F0F5"/>
<path d="M73.5441 77.2773H72.6074V78.4662H73.5441V77.2773Z" fill="#E1F0F5"/>
<path d="M73.5441 81.2627H72.6074V82.4516H73.5441V81.2627Z" fill="#E1F0F5"/>
<path d="M73.5441 83.2559H72.6074V84.4447H73.5441V83.2559Z" fill="#E1F0F5"/>
<path d="M73.5441 85.251H72.6074V86.4399H73.5441V85.251Z" fill="#E1F0F5"/>
<path d="M73.5441 87.2441H72.6074V88.433H73.5441V87.2441Z" fill="#E1F0F5"/>
<path d="M73.5441 91.2295H72.6074V92.4184H73.5441V91.2295Z" fill="#E1F0F5"/>
<path d="M73.5441 93.2227H72.6074V94.4115H73.5441V93.2227Z" fill="#E1F0F5"/>
<path d="M73.5441 95.2148H72.6074V96.4037H73.5441V95.2148Z" fill="#E1F0F5"/>
<path d="M72.0568 53.3584H71.1201V54.5473H72.0568V53.3584Z" fill="#E1F0F5"/>
<path d="M72.0568 55.3506H71.1201V56.5395H72.0568V55.3506Z" fill="#E1F0F5"/>
<path d="M72.0568 57.3467H71.1201V58.5356H72.0568V57.3467Z" fill="#E1F0F5"/>
<path d="M72.0568 59.3389H71.1201V60.5277H72.0568V59.3389Z" fill="#E1F0F5"/>
<path d="M72.0568 61.332H71.1201V62.5209H72.0568V61.332Z" fill="#E1F0F5"/>
<path d="M72.0568 63.3252H71.1201V64.5141H72.0568V63.3252Z" fill="#E1F0F5"/>
<path d="M72.0568 65.3174H71.1201V66.5063H72.0568V65.3174Z" fill="#E1F0F5"/>
<path d="M72.0568 67.3105H71.1201V68.4994H72.0568V67.3105Z" fill="#E1F0F5"/>
<path d="M72.0568 69.3027H71.1201V70.4916H72.0568V69.3027Z" fill="#E1F0F5"/>
<path d="M72.0568 71.2988H71.1201V72.4877H72.0568V71.2988Z" fill="#E1F0F5"/>
<path d="M72.0568 73.292H71.1201V74.4809H72.0568V73.292Z" fill="#E1F0F5"/>
<path d="M72.0568 75.2842H71.1201V76.4731H72.0568V75.2842Z" fill="#E1F0F5"/>
<path d="M72.0568 77.2773H71.1201V78.4662H72.0568V77.2773Z" fill="#E1F0F5"/>
<path d="M72.0568 83.2559H71.1201V84.4447H72.0568V83.2559Z" fill="#E1F0F5"/>
<path d="M72.0568 85.251H71.1201V86.4399H72.0568V85.251Z" fill="#E1F0F5"/>
<path d="M72.0568 89.2373H71.1201V90.4262H72.0568V89.2373Z" fill="#E1F0F5"/>
<path d="M72.0568 91.2295H71.1201V92.4184H72.0568V91.2295Z" fill="#E1F0F5"/>
<path d="M72.0568 93.2227H71.1201V94.4115H72.0568V93.2227Z" fill="#E1F0F5"/>
<path d="M72.0568 95.2148H71.1201V96.4037H72.0568V95.2148Z" fill="#E1F0F5"/>
<path d="M70.5694 53.3584H69.6328V54.5473H70.5694V53.3584Z" fill="#E1F0F5"/>
<path d="M70.5694 55.3506H69.6328V56.5395H70.5694V55.3506Z" fill="#E1F0F5"/>
<path d="M70.5694 57.3467H69.6328V58.5356H70.5694V57.3467Z" fill="#E1F0F5"/>
<path d="M70.5694 59.3389H69.6328V60.5277H70.5694V59.3389Z" fill="#E1F0F5"/>
<path d="M70.5694 61.332H69.6328V62.5209H70.5694V61.332Z" fill="#E1F0F5"/>
<path d="M70.5694 63.3252H69.6328V64.5141H70.5694V63.3252Z" fill="#E1F0F5"/>
<path d="M70.5694 65.3174H69.6328V66.5063H70.5694V65.3174Z" fill="#E1F0F5"/>
<path d="M70.5694 67.3105H69.6328V68.4994H70.5694V67.3105Z" fill="#E1F0F5"/>
<path d="M70.5694 69.3027H69.6328V70.4916H70.5694V69.3027Z" fill="#E1F0F5"/>
<path d="M70.5694 71.2988H69.6328V72.4877H70.5694V71.2988Z" fill="#E1F0F5"/>
<path d="M70.5694 73.292H69.6328V74.4809H70.5694V73.292Z" fill="#E1F0F5"/>
<path d="M70.5694 75.2842H69.6328V76.4731H70.5694V75.2842Z" fill="#E1F0F5"/>
<path d="M70.5694 77.2773H69.6328V78.4662H70.5694V77.2773Z" fill="#E1F0F5"/>
<path d="M70.5694 79.2695H69.6328V80.4584H70.5694V79.2695Z" fill="#E1F0F5"/>
<path d="M70.5694 83.2559H69.6328V84.4447H70.5694V83.2559Z" fill="#E1F0F5"/>
<path d="M70.5694 87.2441H69.6328V88.433H70.5694V87.2441Z" fill="#E1F0F5"/>
<path d="M70.5694 89.2373H69.6328V90.4262H70.5694V89.2373Z" fill="#E1F0F5"/>
<path d="M70.5694 91.2295H69.6328V92.4184H70.5694V91.2295Z" fill="#E1F0F5"/>
<path d="M70.5694 93.2227H69.6328V94.4115H70.5694V93.2227Z" fill="#E1F0F5"/>
<path d="M70.5694 95.2148H69.6328V96.4037H70.5694V95.2148Z" fill="#E1F0F5"/>
<path d="M79.6056 64.7227H78.6689V65.9115H79.6056V64.7227Z" fill="#E1F0F5"/>
<path d="M79.6056 66.7158H78.6689V67.9047H79.6056V66.7158Z" fill="#E1F0F5"/>
<path d="M79.6056 68.709H78.6689V69.8979H79.6056V68.709Z" fill="#E1F0F5"/>
<path d="M79.6056 70.7041H78.6689V71.893H79.6056V70.7041Z" fill="#E1F0F5"/>
<path d="M79.6056 72.6973H78.6689V73.8862H79.6056V72.6973Z" fill="#E1F0F5"/>
<path d="M79.6056 74.6904H78.6689V75.8793H79.6056V74.6904Z" fill="#E1F0F5"/>
<path d="M79.6056 80.668H78.6689V81.8568H79.6056V80.668Z" fill="#E1F0F5"/>
<path d="M79.6056 82.6641H78.6689V83.8529H79.6056V82.6641Z" fill="#E1F0F5"/>
<path d="M79.6056 84.6572H78.6689V85.8461H79.6056V84.6572Z" fill="#E1F0F5"/>
<path d="M79.6056 86.6494H78.6689V87.8383H79.6056V86.6494Z" fill="#E1F0F5"/>
<path d="M79.6056 88.6426H78.6689V89.8315H79.6056V88.6426Z" fill="#E1F0F5"/>
<path d="M79.6056 90.6348H78.6689V91.8237H79.6056V90.6348Z" fill="#E1F0F5"/>
<path d="M79.6056 92.6279H78.6689V93.8168H79.6056V92.6279Z" fill="#E1F0F5"/>
<path d="M78.1183 64.7227H77.1816V65.9115H78.1183V64.7227Z" fill="#E1F0F5"/>
<path d="M78.1183 66.7158H77.1816V67.9047H78.1183V66.7158Z" fill="#E1F0F5"/>
<path d="M78.1183 68.709H77.1816V69.8979H78.1183V68.709Z" fill="#E1F0F5"/>
<path d="M78.1183 70.7041H77.1816V71.893H78.1183V70.7041Z" fill="#E1F0F5"/>
<path d="M78.1183 72.6973H77.1816V73.8862H78.1183V72.6973Z" fill="#E1F0F5"/>
<path d="M78.1183 74.6904H77.1816V75.8793H78.1183V74.6904Z" fill="#E1F0F5"/>
<path d="M78.1183 80.668H77.1816V81.8568H78.1183V80.668Z" fill="#E1F0F5"/>
<path d="M78.1183 82.6641H77.1816V83.8529H78.1183V82.6641Z" fill="#E1F0F5"/>
<path d="M78.1183 84.6572H77.1816V85.8461H78.1183V84.6572Z" fill="#E1F0F5"/>
<path d="M78.1183 86.6494H77.1816V87.8383H78.1183V86.6494Z" fill="#E1F0F5"/>
<path d="M78.1183 88.6426H77.1816V89.8315H78.1183V88.6426Z" fill="#E1F0F5"/>
<path d="M78.1183 90.6348H77.1816V91.8237H78.1183V90.6348Z" fill="#E1F0F5"/>
<path d="M78.1183 94.6211H77.1816V95.81H78.1183V94.6211Z" fill="#E1F0F5"/>
<path d="M28.6944 55.9453H27.7578V57.1342H28.6944V55.9453Z" fill="#E1F0F5"/>
<path d="M28.6944 57.9414H27.7578V59.1303H28.6944V57.9414Z" fill="#E1F0F5"/>
<path d="M28.6944 59.9336H27.7578V61.1225H28.6944V59.9336Z" fill="#E1F0F5"/>
<path d="M28.6944 61.9268H27.7578V63.1156H28.6944V61.9268Z" fill="#E1F0F5"/>
<path d="M28.6944 63.9189H27.7578V65.1078H28.6944V63.9189Z" fill="#E1F0F5"/>
<path d="M28.6944 65.9121H27.7578V67.101H28.6944V65.9121Z" fill="#E1F0F5"/>
<path d="M28.6944 67.9043H27.7578V69.0932H28.6944V67.9043Z" fill="#E1F0F5"/>
<path d="M28.6944 69.8975H27.7578V71.0863H28.6944V69.8975Z" fill="#E1F0F5"/>
<path d="M28.6944 71.8936H27.7578V73.0824H28.6944V71.8936Z" fill="#E1F0F5"/>
<path d="M28.6944 73.8857H27.7578V75.0746H28.6944V73.8857Z" fill="#E1F0F5"/>
<path d="M28.6944 75.8789H27.7578V77.0678H28.6944V75.8789Z" fill="#E1F0F5"/>
<path d="M28.6944 79.8643H27.7578V81.0531H28.6944V79.8643Z" fill="#E1F0F5"/>
<path d="M28.6944 81.8574H27.7578V83.0463H28.6944V81.8574Z" fill="#E1F0F5"/>
<path d="M28.6944 83.8525H27.7578V85.0414H28.6944V83.8525Z" fill="#E1F0F5"/>
<path d="M28.6944 85.8457H27.7578V87.0346H28.6944V85.8457Z" fill="#E1F0F5"/>
<path d="M28.6944 87.8389H27.7578V89.0277H28.6944V87.8389Z" fill="#E1F0F5"/>
<path d="M28.6944 89.8311H27.7578V91.0199H28.6944V89.8311Z" fill="#E1F0F5"/>
<path d="M28.6944 91.8242H27.7578V93.0131H28.6944V91.8242Z" fill="#E1F0F5"/>
<path d="M28.6944 93.8164H27.7578V95.0053H28.6944V93.8164Z" fill="#E1F0F5"/>
<path d="M27.2071 55.9453H26.2705V57.1342H27.2071V55.9453Z" fill="#E1F0F5"/>
<path d="M27.2071 57.9414H26.2705V59.1303H27.2071V57.9414Z" fill="#E1F0F5"/>
<path d="M27.2071 59.9336H26.2705V61.1225H27.2071V59.9336Z" fill="#E1F0F5"/>
<path d="M27.2071 61.9268H26.2705V63.1156H27.2071V61.9268Z" fill="#E1F0F5"/>
<path d="M27.2071 63.9189H26.2705V65.1078H27.2071V63.9189Z" fill="#E1F0F5"/>
<path d="M27.2071 65.9121H26.2705V67.101H27.2071V65.9121Z" fill="#E1F0F5"/>
<path d="M27.2071 67.9043H26.2705V69.0932H27.2071V67.9043Z" fill="#E1F0F5"/>
<path d="M27.2071 69.8975H26.2705V71.0863H27.2071V69.8975Z" fill="#E1F0F5"/>
<path d="M27.2071 71.8936H26.2705V73.0824H27.2071V71.8936Z" fill="#E1F0F5"/>
<path d="M27.2071 73.8857H26.2705V75.0746H27.2071V73.8857Z" fill="#E1F0F5"/>
<path d="M27.2071 75.8789H26.2705V77.0678H27.2071V75.8789Z" fill="#E1F0F5"/>
<path d="M27.2071 77.8721H26.2705V79.061H27.2071V77.8721Z" fill="#E1F0F5"/>
<path d="M27.2071 79.8643H26.2705V81.0531H27.2071V79.8643Z" fill="#E1F0F5"/>
<path d="M27.2071 81.8574H26.2705V83.0463H27.2071V81.8574Z" fill="#E1F0F5"/>
<path d="M27.2071 83.8525H26.2705V85.0414H27.2071V83.8525Z" fill="#E1F0F5"/>
<path d="M27.2071 85.8457H26.2705V87.0346H27.2071V85.8457Z" fill="#E1F0F5"/>
<path d="M27.2071 87.8389H26.2705V89.0277H27.2071V87.8389Z" fill="#E1F0F5"/>
<path d="M27.2071 89.8311H26.2705V91.0199H27.2071V89.8311Z" fill="#E1F0F5"/>
<path d="M27.2071 91.8242H26.2705V93.0131H27.2071V91.8242Z" fill="#E1F0F5"/>
<path d="M27.2071 93.8164H26.2705V95.0053H27.2071V93.8164Z" fill="#E1F0F5"/>
<path d="M36.0226 63.71H35.0859V64.8988H36.0226V63.71Z" fill="#E1F0F5"/>
<path d="M36.0226 65.7021H35.0859V66.891H36.0226V65.7021Z" fill="#E1F0F5"/>
<path d="M36.0226 67.6953H35.0859V68.8842H36.0226V67.6953Z" fill="#E1F0F5"/>
<path d="M36.0226 69.6885H35.0859V70.8774H36.0226V69.6885Z" fill="#E1F0F5"/>
<path d="M36.0226 71.6836H35.0859V72.8725H36.0226V71.6836Z" fill="#E1F0F5"/>
<path d="M36.0226 73.6768H35.0859V74.8656H36.0226V73.6768Z" fill="#E1F0F5"/>
<path d="M36.0226 75.6699H35.0859V76.8588H36.0226V75.6699Z" fill="#E1F0F5"/>
<path d="M36.0226 77.6621H35.0859V78.851H36.0226V77.6621Z" fill="#E1F0F5"/>
<path d="M36.0226 79.6553H35.0859V80.8442H36.0226V79.6553Z" fill="#E1F0F5"/>
<path d="M36.0226 81.6475H35.0859V82.8363H36.0226V81.6475Z" fill="#E1F0F5"/>
<path d="M34.5353 63.71H33.5986V64.8988H34.5353V63.71Z" fill="#E1F0F5"/>
<path d="M34.5353 65.7021H33.5986V66.891H34.5353V65.7021Z" fill="#E1F0F5"/>
<path d="M34.5353 67.6953H33.5986V68.8842H34.5353V67.6953Z" fill="#E1F0F5"/>
<path d="M34.5353 69.6885H33.5986V70.8774H34.5353V69.6885Z" fill="#E1F0F5"/>
<path d="M34.5353 71.6836H33.5986V72.8725H34.5353V71.6836Z" fill="#E1F0F5"/>
<path d="M34.5353 73.6768H33.5986V74.8656H34.5353V73.6768Z" fill="#E1F0F5"/>
<path d="M34.5353 75.6699H33.5986V76.8588H34.5353V75.6699Z" fill="#E1F0F5"/>
<path d="M34.5353 77.6621H33.5986V78.851H34.5353V77.6621Z" fill="#E1F0F5"/>
<path d="M34.5353 79.6553H33.5986V80.8442H34.5353V79.6553Z" fill="#E1F0F5"/>
<path d="M40.306 17.7034C40.3071 17.2792 40.23 16.8606 40.0808 16.4811C39.9316 16.1015 39.7145 15.7716 39.4467 15.5177C39.179 15.2638 38.8682 15.0931 38.5392 15.0191C38.2101 14.9451 37.872 14.9699 37.5519 15.0916C37.6542 14.1865 37.5849 13.2635 37.35 12.3992C37.115 11.5348 36.721 10.7541 36.2007 10.1217C35.6805 9.48932 35.0489 9.02353 34.3584 8.76298C33.6679 8.50244 32.9384 8.45464 32.2305 8.62356C31.7839 7.69203 31.1108 6.97009 30.3127 6.56665C29.5146 6.16321 28.6347 6.10014 27.8059 6.38697C26.977 6.67379 26.2442 7.29495 25.7178 8.15675C25.1915 9.01854 24.9002 10.0742 24.8879 11.1646H24.8223C23.8544 11.1646 22.9262 11.6526 22.2418 12.5213C21.5573 13.3901 21.1729 14.5683 21.1729 15.7969C21.1729 17.0254 21.5573 18.2037 22.2418 19.0724C22.9262 19.9412 23.8544 20.4292 24.8223 20.4292H38.2216C38.7807 20.4107 39.3119 20.1151 39.7015 19.6056C40.0911 19.0962 40.3081 18.4134 40.306 17.7034Z" fill="#E1F0F5"/>
<path d="M107.035 18.6862C107.035 18.2263 106.891 17.7853 106.635 17.4601C106.379 17.1349 106.032 16.9522 105.669 16.9522C105.536 16.953 105.404 16.9779 105.276 17.0261C105.297 16.8497 105.307 16.6716 105.308 16.4933C105.308 15.5196 105.003 14.5857 104.461 13.8972C103.918 13.2087 103.182 12.8219 102.415 12.8219C102.236 12.8215 102.057 12.8431 101.882 12.8866C101.596 12.292 101.167 11.8312 100.657 11.5736C100.148 11.316 99.5865 11.2756 99.0574 11.4584C98.5283 11.6413 98.0604 12.0374 97.7242 12.5873C97.388 13.1371 97.2017 13.8107 97.1935 14.5067H97.1522C96.8398 14.4939 96.5286 14.5609 96.237 14.7038C95.9454 14.8467 95.6795 15.0626 95.4549 15.3386C95.2304 15.6145 95.0518 15.945 94.9299 16.3103C94.808 16.6756 94.7451 17.0683 94.7451 17.465C94.7451 17.8617 94.808 18.2544 94.9299 18.6197C95.0518 18.985 95.2304 19.3155 95.4549 19.5914C95.6795 19.8674 95.9454 20.0833 96.237 20.2262C96.5286 20.3691 96.8398 20.4361 97.1522 20.4233H105.708C106.064 20.4113 106.403 20.2228 106.651 19.8981C106.899 19.5735 107.037 19.1385 107.035 18.6862Z" fill="#E1F0F5"/>
<path d="M67.1189 35.9895C67.1183 35.7079 67.0299 35.4381 66.873 35.239C66.7161 35.0399 66.5036 34.9277 66.2818 34.9269C66.1996 34.9277 66.1179 34.9432 66.0391 34.9731C66.0517 34.865 66.0582 34.7559 66.0585 34.6466C66.0585 34.3511 66.0126 34.0585 65.9234 33.7855C65.8343 33.5125 65.7036 33.2645 65.5388 33.0557C65.3741 32.8468 65.1785 32.6813 64.9633 32.5685C64.7482 32.4557 64.5176 32.3978 64.2847 32.3982C64.1757 32.398 64.0669 32.4104 63.9596 32.4352C63.7844 32.0716 63.5209 31.7901 63.2088 31.6329C62.8966 31.4757 62.5528 31.4514 62.2288 31.5635C61.9049 31.6757 61.6184 31.9183 61.4124 32.2549C61.2064 32.5915 61.0921 33.0039 61.0866 33.43H61.0623C60.8698 33.4199 60.6777 33.4594 60.4976 33.5459C60.3174 33.6325 60.1529 33.7644 60.0139 33.9337C59.8749 34.103 59.7643 34.3062 59.6887 34.5311C59.6132 34.7561 59.5742 34.9981 59.5742 35.2426C59.5742 35.4871 59.6132 35.7291 59.6887 35.9541C59.7643 36.179 59.8749 36.3822 60.0139 36.5515C60.1529 36.7208 60.3174 36.8527 60.4976 36.9393C60.6777 37.0258 60.8698 37.0652 61.0623 37.0552H66.3036C66.5224 37.0487 66.7305 36.9334 66.883 36.7341C67.0355 36.5347 67.1202 36.2673 67.1189 35.9895Z" fill="#E1F0F5"/>
<path d="M12.4683 96.4044V100.806H110.228V96.4044C110.235 96.2273 110.215 96.05 110.167 95.8834C110.119 95.7168 110.045 95.5642 109.949 95.4349C109.853 95.3057 109.738 95.2024 109.61 95.1313C109.482 95.0603 109.344 95.0229 109.204 95.0215H13.4923C13.3525 95.0229 13.2145 95.0603 13.0864 95.1313C12.9584 95.2024 12.843 95.3057 12.7473 95.4349C12.6515 95.5642 12.5775 95.7168 12.5295 95.8834C12.4816 96.05 12.4608 96.2273 12.4683 96.4044Z" fill="#E1F0F5"/>
<path d="M104.657 95.0117H98.5781V100.799H104.657V95.0117Z" fill="#E1F0F5"/>
<path d="M93.0077 95.0117H87.1816V100.799H93.0077V95.0117Z" fill="#E1F0F5"/>
<path d="M81.6097 95.0117H75.5312V100.799H81.6097V95.0117Z" fill="#E1F0F5"/>
<path d="M69.9608 95.0117H64.1348V100.799H69.9608V95.0117Z" fill="#E1F0F5"/>
<path d="M58.56 95.0117H52.7363V100.799H58.56V95.0117Z" fill="#E1F0F5"/>
<path d="M47.1653 95.0117H41.0869V100.799H47.1653V95.0117Z" fill="#E1F0F5"/>
<path d="M35.516 95.0117H29.6924V100.799H35.516V95.0117Z" fill="#E1F0F5"/>
<path d="M24.1185 95.0117H18.04V100.799H24.1185V95.0117Z" fill="#E1F0F5"/>
</svg>
