<svg width="7" height="7" viewBox="0 0 7 7" fill="none" xmlns="http://www.w3.org/2000/svg">
<path d="M6.82356 3.20362L5.41649 4.4622L5.84518 6.3444C5.86883 6.44658 5.86274 6.55372 5.82767 6.65231C5.79261 6.7509 5.73014 6.83651 5.64817 6.89832C5.56619 6.96012 5.46838 6.99536 5.3671 6.99957C5.26581 7.00379 5.1656 6.97679 5.07911 6.92199L3.50006 5.91461L1.92008 6.92199C1.8336 6.97647 1.73351 7.00321 1.6324 6.99885C1.53128 6.99448 1.43368 6.95919 1.35188 6.89744C1.27007 6.83569 1.20772 6.75022 1.17268 6.65181C1.13764 6.5534 1.13147 6.44644 1.15495 6.3444L1.5852 4.4622L0.178131 3.20362C0.101617 3.13507 0.0462809 3.04467 0.019033 2.94372C-0.00821487 2.84276 -0.00616673 2.73572 0.0249216 2.63596C0.0560099 2.53621 0.114761 2.44816 0.193837 2.38281C0.272913 2.31746 0.368809 2.2777 0.46955 2.26851L2.31437 2.11423L3.02604 0.328943C3.06456 0.231646 3.13012 0.14842 3.21439 0.0898475C3.29866 0.0312746 3.39782 0 3.49928 0C3.60074 0 3.69991 0.0312746 3.78417 0.0898475C3.86844 0.14842 3.934 0.231646 3.97252 0.328943L4.68388 2.11423L6.5287 2.26851C6.62964 2.27736 6.72582 2.31689 6.80518 2.38215C6.88454 2.44741 6.94356 2.5355 6.97485 2.63538C7.00613 2.73525 7.00828 2.84248 6.98103 2.94362C6.95379 3.04476 6.89836 3.13531 6.82168 3.20394L6.82356 3.20362Z" fill="#085B42"/>
</svg>
