<svg width="20" height="19" viewBox="0 0 20 19" fill="none" xmlns="http://www.w3.org/2000/svg">
<path d="M18.75 7.4972H17.9653C17.7769 5.44784 16.8299 3.54285 15.31 2.15587C13.7902 0.768894 11.8072 0 9.75 0C7.69279 0 5.70981 0.768894 4.18998 2.15587C2.67015 3.54285 1.72314 5.44784 1.53469 7.4972H0.75C0.551088 7.4972 0.360322 7.57625 0.21967 7.71695C0.0790176 7.85766 0 8.0485 0 8.24749C0.00329532 10.0318 0.494149 11.7813 1.41948 13.3067C2.34481 14.8321 3.6694 16.0754 5.25 16.9021V17.251C5.25 17.649 5.40804 18.0307 5.68934 18.3121C5.97064 18.5935 6.35218 18.7516 6.75 18.7516H12.75C13.1478 18.7516 13.5294 18.5935 13.8107 18.3121C14.092 18.0307 14.25 17.649 14.25 17.251V16.9021C15.8306 16.0754 17.1552 14.8321 18.0805 13.3067C19.0058 11.7813 19.4967 10.0318 19.5 8.24749C19.5 8.0485 19.421 7.85766 19.2803 7.71695C19.1397 7.57625 18.9489 7.4972 18.75 7.4972ZM14.0138 3.01701C14.1856 3.15769 14.3503 3.30618 14.5078 3.46249C12.5113 4.1651 10.8614 5.60909 9.9 7.49532H7.13437C7.60313 6.18083 8.46613 5.04318 9.60547 4.23778C10.7448 3.43237 12.1049 2.9985 13.5 2.99543C13.6716 2.99543 13.8431 3.00388 14.0138 3.01701ZM11.6362 7.4972C12.5455 6.13249 13.9212 5.14645 15.5053 4.72392C16.0233 5.56674 16.3482 6.51383 16.4569 7.4972H11.6362ZM9.75 1.49485C10.3518 1.49539 10.9509 1.57645 11.5312 1.73588C10.1179 2.08662 8.82195 2.80387 7.77401 3.81534C6.72606 4.82681 5.96316 6.09676 5.56219 7.4972H3.04312C3.22917 5.84736 4.01562 4.32371 5.25254 3.21672C6.48946 2.10973 8.09035 1.49682 9.75 1.49485Z" fill="#FF5200"/>
</svg>
