<svg width="20" height="20" viewBox="0 0 20 20" fill="none" xmlns="http://www.w3.org/2000/svg">
<g clip-path="url(#clip0_1856_401)">
<path d="M9.9524 7.4291L8.6669 6.1436L4.80859 10.001L8.66599 13.8584L9.95149 12.572L8.29052 10.9101H15.1426V9.09188H8.29052L9.9524 7.4291Z" fill="#818181"/>
<path fill-rule="evenodd" clip-rule="evenodd" d="M2.92821 2.92951C-0.977372 6.83509 -0.977372 13.1662 2.92821 17.0718C6.83379 20.9774 13.1649 20.9774 17.0705 17.0718C20.9761 13.1662 20.9761 6.83509 17.0705 2.92951C13.1649 -0.97607 6.83379 -0.97607 2.92821 2.92951ZM4.21371 4.21501C2.67926 5.74946 1.81721 7.83061 1.81721 10.0007C1.81721 12.1707 2.67926 14.2518 4.21371 15.7863C5.74815 17.3207 7.82931 18.1828 9.99935 18.1828C12.1694 18.1828 14.2505 17.3207 15.785 15.7863C17.3194 14.2518 18.1815 12.1707 18.1815 10.0007C18.1815 7.83061 17.3194 5.74946 15.785 4.21501C14.2505 2.68056 12.1694 1.81852 9.99935 1.81852C7.82931 1.81852 5.74815 2.68056 4.21371 4.21501Z" fill="#818181"/>
</g>
<defs>
<clipPath id="clip0_1856_401">
<rect width="20" height="20" fill="white" transform="matrix(0 -1 1 0 0 20)"/>
</clipPath>
</defs>
</svg>
