<svg width="19" height="20" viewBox="0 0 19 20" fill="none" xmlns="http://www.w3.org/2000/svg">
<path d="M1.71409 10.1945C2.20634 7.73049 2.45292 6.50033 3.26601 5.70649C3.41628 5.56023 3.57882 5.42713 3.75184 5.30866C4.68959 4.66699 5.94542 4.66699 8.45709 4.66699H10.0182C12.5289 4.66699 13.7838 4.66699 14.7207 5.30866C14.8948 5.42844 15.0568 5.56135 15.2065 5.70741C16.0196 6.50033 16.2671 7.73141 16.7593 10.1945C17.4661 13.7292 17.8199 15.4965 17.0059 16.7487C16.8586 16.9766 16.6875 17.1853 16.4926 17.3747C15.4238 18.417 13.6225 18.417 10.0182 18.417H8.45709C4.85184 18.417 3.04967 18.417 1.98084 17.3738C1.78746 17.1847 1.61561 16.9747 1.46842 16.7477C0.654425 15.4956 1.00826 13.7282 1.71592 10.1936L1.71409 10.1945Z" stroke="#FF5200" stroke-width="1.5"/>
<path d="M13.8327 8.33333C14.3389 8.33333 14.7493 7.92293 14.7493 7.41667C14.7493 6.91041 14.3389 6.5 13.8327 6.5C13.3264 6.5 12.916 6.91041 12.916 7.41667C12.916 7.92293 13.3264 8.33333 13.8327 8.33333Z" fill="#FF5200"/>
<path d="M4.66667 8.33333C5.17293 8.33333 5.58333 7.92293 5.58333 7.41667C5.58333 6.91041 5.17293 6.5 4.66667 6.5C4.16041 6.5 3.75 6.91041 3.75 7.41667C3.75 7.92293 4.16041 8.33333 4.66667 8.33333Z" fill="#FF5200"/>
<path d="M2.83301 4.66667V3.75C2.83301 3.02065 3.12274 2.32118 3.63846 1.80546C4.15419 1.28973 4.85366 1 5.58301 1C6.31235 1 7.01183 1.28973 7.52755 1.80546C8.04328 2.32118 8.33301 3.02065 8.33301 3.75V4.66667" stroke="#FF5200" stroke-width="1.5" stroke-linecap="round"/>
</svg>
