<svg width="18" height="16" viewBox="0 0 18 16" fill="none" xmlns="http://www.w3.org/2000/svg">
<path d="M12.9286 0.418945C12.0969 0.431881 11.2834 0.664043 10.5702 1.09199C9.85692 1.51993 9.26924 2.1285 8.86645 2.85624C8.46366 2.1285 7.87597 1.51993 7.16274 1.09199C6.4495 0.664043 5.63597 0.431881 4.8043 0.418945C3.47852 0.476547 2.22942 1.05652 1.32989 2.03216C0.430367 3.0078 -0.0464632 4.29979 0.00357551 5.62588C0.00357551 8.98417 3.53838 12.6519 6.50302 15.1387C7.16494 15.6949 8.00184 15.9999 8.86645 15.9999C9.73105 15.9999 10.568 15.6949 11.2299 15.1387C14.1945 12.6519 17.7293 8.98417 17.7293 5.62588C17.7794 4.29979 17.3025 3.0078 16.403 2.03216C15.5035 1.05652 14.2544 0.476547 12.9286 0.418945ZM10.2808 14.0087C9.88493 14.3421 9.384 14.5249 8.86645 14.5249C8.34889 14.5249 7.84797 14.3421 7.45208 14.0087C3.65729 10.8247 1.48072 7.76996 1.48072 5.62588C1.43023 4.69138 1.75131 3.77482 2.37392 3.07611C2.99654 2.3774 3.87018 1.95322 4.8043 1.89609C5.73842 1.95322 6.61206 2.3774 7.23467 3.07611C7.85729 3.77482 8.17836 4.69138 8.12787 5.62588C8.12787 5.82176 8.20569 6.00962 8.3442 6.14813C8.48271 6.28664 8.67057 6.36446 8.86645 6.36446C9.06233 6.36446 9.25019 6.28664 9.3887 6.14813C9.52721 6.00962 9.60502 5.82176 9.60502 5.62588C9.55453 4.69138 9.87561 3.77482 10.4982 3.07611C11.1208 2.3774 11.9945 1.95322 12.9286 1.89609C13.8627 1.95322 14.7364 2.3774 15.359 3.07611C15.9816 3.77482 16.3027 4.69138 16.2522 5.62588C16.2522 7.76996 14.0756 10.8247 10.2808 14.0057V14.0087Z" fill="#FF5200"/>
</svg>
