<svg width="14" height="10" viewBox="0 0 14 10" fill="none" xmlns="http://www.w3.org/2000/svg">
<path d="M6.26976 7.24236V6.36409C6.26976 5.25982 6.26976 4.70827 5.92855 4.36517C5.58734 4.02206 5.03884 4.02206 3.94067 4.02206H3.5913C3.37528 4.02206 3.26698 4.02206 3.17556 4.02908C2.92409 4.04885 2.67749 4.10956 2.44539 4.20883M6.26976 7.24236H9.18113M6.26976 7.24236H1.6698C1.61565 7.24236 1.58828 7.24236 1.56615 7.2406C1.42793 7.22974 1.29809 7.16964 1.19999 7.07111C1.1019 6.97258 1.04199 6.84209 1.03104 6.7031C1.0293 6.67968 1.0293 6.65275 1.0293 6.5983C1.0293 6.38107 1.0293 6.27217 1.03628 6.18024C1.05233 5.97504 1.0952 5.77286 1.1638 5.57893M5.39635 7.24236C5.39635 7.70822 5.21231 8.155 4.88472 8.48441C4.55713 8.81382 4.11282 8.99888 3.64953 8.99888C3.18624 8.99888 2.74193 8.81382 2.41434 8.48441C2.08675 8.155 1.90271 7.70822 1.90271 7.24236M6.85204 0.801758H7.15948C7.85995 0.801758 8.2099 0.801758 8.49114 0.976825C8.77296 1.15131 8.92959 1.46631 9.24227 2.09632L10.928 5.48583M10.4289 4.31481L10.8255 4.02089C10.9786 3.9073 11.0555 3.85109 11.1085 3.77673C11.1447 3.72648 11.1729 3.67075 11.1917 3.61162C11.2191 3.52437 11.2191 3.42894 11.2191 3.23806C11.2191 2.87622 11.2191 2.69588 11.1422 2.56063C11.0907 2.46988 11.0159 2.39468 10.9256 2.34282C10.7917 2.26553 10.6112 2.26553 10.2519 2.26553H9.47227" stroke="black" stroke-linecap="round"/>
<path d="M10.3459 8.89917C10.7194 9.0318 11.1267 9.03281 11.5009 8.90204C11.8751 8.77127 12.194 8.51648 12.4052 8.17949C12.6165 7.84249 12.7075 7.4433 12.6635 7.04742C12.6194 6.65154 12.4428 6.28248 12.1627 6.00081C11.8826 5.71913 11.5155 5.54156 11.1218 5.49724C10.7281 5.45292 10.3312 5.54447 9.99603 5.75689C9.6609 5.9693 9.40752 6.28995 9.27747 6.66623C9.14742 7.04251 9.14843 7.45206 9.28033 7.82769" stroke="black" stroke-linecap="round"/>
</svg>
