<svg width="14" height="14" viewBox="0 0 14 14" fill="none" xmlns="http://www.w3.org/2000/svg">
<g clip-path="url(#clip0_1735_411)">
<path d="M5.25 0.875C4.70693 0.874716 4.17714 1.04287 3.73364 1.3563C3.29014 1.66973 2.95477 2.11299 2.77375 2.625H0V4.375H2.77375C2.95453 4.88734 3.28977 5.331 3.73327 5.64481C4.17678 5.95862 4.7067 6.12714 5.25 6.12714C5.7933 6.12714 6.32322 5.95862 6.76673 5.64481C7.21023 5.331 7.54547 4.88734 7.72625 4.375H14V2.625H7.72625C7.54523 2.11299 7.20986 1.66973 6.76636 1.3563C6.32286 1.04287 5.79307 0.874716 5.25 0.875ZM4.375 3.5C4.375 3.26794 4.46719 3.04538 4.63128 2.88128C4.79538 2.71719 5.01794 2.625 5.25 2.625C5.48206 2.625 5.70462 2.71719 5.86872 2.88128C6.03281 3.04538 6.125 3.26794 6.125 3.5C6.125 3.73206 6.03281 3.95462 5.86872 4.11872C5.70462 4.28281 5.48206 4.375 5.25 4.375C5.01794 4.375 4.79538 4.28281 4.63128 4.11872C4.46719 3.95462 4.375 3.73206 4.375 3.5ZM8.75 7.875C8.20693 7.87471 7.67714 8.04287 7.23364 8.3563C6.79014 8.66972 6.45477 9.11299 6.27375 9.625H0V11.375H6.27375C6.45453 11.8873 6.78977 12.331 7.23327 12.6448C7.67678 12.9586 8.2067 13.1271 8.75 13.1271C9.2933 13.1271 9.82322 12.9586 10.2667 12.6448C10.7102 12.331 11.0455 11.8873 11.2262 11.375H14V9.625H11.2262C11.0452 9.11299 10.7099 8.66972 10.2664 8.3563C9.82286 8.04287 9.29307 7.87471 8.75 7.875ZM7.875 10.5C7.875 10.2679 7.96719 10.0454 8.13128 9.88128C8.29538 9.71719 8.51794 9.625 8.75 9.625C8.98206 9.625 9.20462 9.71719 9.36872 9.88128C9.53281 10.0454 9.625 10.2679 9.625 10.5C9.625 10.7321 9.53281 10.9546 9.36872 11.1187C9.20462 11.2828 8.98206 11.375 8.75 11.375C8.51794 11.375 8.29538 11.2828 8.13128 11.1187C7.96719 10.9546 7.875 10.7321 7.875 10.5Z" fill="black"/>
</g>
<defs>
<clipPath id="clip0_1735_411">
<rect width="14" height="14" fill="white"/>
</clipPath>
</defs>
</svg>
