<svg width="17" height="17" viewBox="0 0 17 17" fill="none" xmlns="http://www.w3.org/2000/svg">
<path fill-rule="evenodd" clip-rule="evenodd" d="M6.47197 0.832339C6.70646 0.570458 6.99353 0.360971 7.31446 0.21755C7.63539 0.0741297 7.98295 0 8.33447 0C8.68599 0 9.03355 0.0741297 9.35448 0.21755C9.67541 0.360971 9.96249 0.570458 10.197 0.832339L10.7803 1.48401C10.8637 1.57726 10.967 1.65055 11.0825 1.69845C11.1981 1.74634 11.3229 1.76761 11.4478 1.76067L12.3228 1.71234C12.6737 1.69307 13.0247 1.74798 13.3529 1.87351C13.6811 1.99903 13.9792 2.19233 14.2277 2.44081C14.4761 2.68929 14.6694 2.98736 14.795 3.31558C14.9205 3.6438 14.9754 3.9948 14.9561 4.34567L14.9078 5.22067C14.901 5.34543 14.9223 5.47012 14.9702 5.58551C15.0181 5.70091 15.0913 5.80406 15.1845 5.88734L15.837 6.47067C16.099 6.70516 16.3086 6.99229 16.4521 7.31329C16.5956 7.6343 16.6698 7.98197 16.6698 8.33359C16.6698 8.68521 16.5956 9.03288 16.4521 9.35389C16.3086 9.67489 16.099 9.96202 15.837 10.1965L15.1845 10.7798C15.0912 10.8632 15.0179 10.9665 14.97 11.082C14.9221 11.1976 14.9009 11.3224 14.9078 11.4473L14.9561 12.3223C14.9754 12.6732 14.9205 13.0242 14.795 13.3524C14.6694 13.6806 14.4761 13.9787 14.2277 14.2272C13.9792 14.4757 13.6811 14.669 13.3529 14.7945C13.0247 14.92 12.6737 14.9749 12.3228 14.9557L11.4478 14.9073C11.323 14.9005 11.1984 14.9219 11.083 14.9697C10.9676 15.0176 10.8644 15.0909 10.7811 15.184L10.1978 15.8365C9.96332 16.0985 9.67619 16.3081 9.35518 16.4516C9.03418 16.5951 8.68651 16.6693 8.33489 16.6693C7.98326 16.6693 7.6356 16.5951 7.31459 16.4516C6.99359 16.3081 6.70646 16.0985 6.47197 15.8365L5.88864 15.184C5.80527 15.0907 5.70199 15.0175 5.58643 14.9696C5.47088 14.9217 5.34603 14.9004 5.22114 14.9073L4.34614 14.9557C3.99526 14.9749 3.64427 14.92 3.31605 14.7945C2.98783 14.669 2.68975 14.4757 2.44128 14.2272C2.1928 13.9787 1.99949 13.6806 1.87397 13.3524C1.74845 13.0242 1.69353 12.6732 1.7128 12.3223L1.76114 11.4473C1.76795 11.3226 1.74662 11.1979 1.69873 11.0825C1.65084 10.9671 1.57761 10.8639 1.48447 10.7807L0.832804 10.1973C0.570787 9.96285 0.361181 9.67573 0.217678 9.35472C0.074174 9.03371 0 8.68604 0 8.33442C0 7.9828 0.074174 7.63513 0.217678 7.31413C0.361181 6.99312 0.570787 6.706 0.832804 6.47151L1.48447 5.88817C1.57773 5.80481 1.65102 5.70152 1.69891 5.58597C1.74681 5.47042 1.76807 5.34556 1.76114 5.22067L1.7128 4.34567C1.69353 3.9948 1.74845 3.6438 1.87397 3.31558C1.99949 2.98736 2.1928 2.68929 2.44128 2.44081C2.68975 2.19233 2.98783 1.99903 3.31605 1.87351C3.64427 1.74798 3.99526 1.69307 4.34614 1.71234L5.22114 1.76067C5.34589 1.76748 5.47058 1.74615 5.58598 1.69826C5.70138 1.65037 5.80453 1.57715 5.8878 1.48401L6.47197 0.832339ZM11.4236 5.24484C11.5799 5.40111 11.6676 5.61304 11.6676 5.83401C11.6676 6.05498 11.5799 6.2669 11.4236 6.42317L6.42364 11.4232C6.26647 11.575 6.05597 11.659 5.83747 11.6571C5.61897 11.6552 5.40996 11.5675 5.25546 11.413C5.10095 11.2585 5.01331 11.0495 5.01141 10.831C5.00951 10.6125 5.09351 10.402 5.2453 10.2448L10.2453 5.24484C10.4016 5.08861 10.6135 5.00085 10.8345 5.00085C11.0554 5.00085 11.2674 5.08861 11.4236 5.24484ZM6.25114 5.00067C5.91962 5.00067 5.60167 5.13237 5.36725 5.36679C5.13283 5.60121 5.00114 5.91915 5.00114 6.25067V6.25901C5.00114 6.59053 5.13283 6.90847 5.36725 7.14289C5.60167 7.37731 5.91962 7.50901 6.25114 7.50901H6.25947C6.59099 7.50901 6.90893 7.37731 7.14335 7.14289C7.37777 6.90847 7.50947 6.59053 7.50947 6.25901V6.25067C7.50947 5.91915 7.37777 5.60121 7.14335 5.36679C6.90893 5.13237 6.59099 5.00067 6.25947 5.00067H6.25114ZM10.4178 9.16734C10.0863 9.16734 9.76834 9.29903 9.53392 9.53345C9.2995 9.76788 9.1678 10.0858 9.1678 10.4173V10.4257C9.1678 10.7572 9.2995 11.0751 9.53392 11.3096C9.76834 11.544 10.0863 11.6757 10.4178 11.6757H10.4261C10.7577 11.6757 11.0756 11.544 11.31 11.3096C11.5444 11.0751 11.6761 10.7572 11.6761 10.4257V10.4173C11.6761 10.0858 11.5444 9.76788 11.31 9.53345C11.0756 9.29903 10.7577 9.16734 10.4261 9.16734H10.4178Z" fill="#3465BF"/>
</svg>
