<svg width="12" height="14" viewBox="0 0 12 14" fill="none" xmlns="http://www.w3.org/2000/svg">
<path d="M8.34235 2.28571V4.42857C8.34235 5.11056 8.08042 5.76461 7.61417 6.24685C7.14792 6.72908 6.51554 7 5.85617 7C5.19679 7 4.56442 6.72908 4.09816 6.24685C3.63191 5.76461 3.36998 5.11056 3.36998 4.42857V2.28571M0.883789 1.85714V12.1429C0.883789 12.3702 0.971101 12.5882 1.12652 12.7489C1.28194 12.9097 1.49273 13 1.71252 13H9.99981C10.2196 13 10.4304 12.9097 10.5858 12.7489C10.7412 12.5882 10.8285 12.3702 10.8285 12.1429V1.85714C10.8285 1.62981 10.7412 1.4118 10.5858 1.25105C10.4304 1.09031 10.2196 1 9.99981 1H1.71252C1.49273 1 1.28194 1.09031 1.12652 1.25105C0.971101 1.4118 0.883789 1.62981 0.883789 1.85714Z" stroke="black"/>
</svg>
